<svg height="2500" viewBox="0 0 400 400" width="2500" xmlns="http://www.w3.org/2000/svg"><path d="m0 0h400v400h-400z" fill="#173557"/><path d="m34.4 205.8c-2.2 0-4.1-.4-5.6-1.2s-2.7-1.9-3.4-3.3c-.8-1.4-1.1-3.1-1.1-5 0-2.4.7-4.3 1.8-5.6 1.2-1.3 2.9-2.1 5.1-2.5l.5 5.1c-1 .2-1.8.5-2.3 1s-.7 1.2-.8 2.1c0 1.2.5 2.2 1.4 2.8 1 .7 2.4 1 4.2 1 1.9 0 3.3-.3 4.3-.9s1.5-1.6 1.5-2.9c0-1-.2-1.8-.8-2.3-.5-.5-1.3-.9-2.3-1.1v-5.2c2.4.2 4.3 1.1 5.6 2.5 1.3 1.5 2 3.6 1.9 6.2 0 2.9-1 5.2-2.7 6.8-1.8 1.6-4.2 2.3-7.4 2.3zm.4-20.8c-2.1-.3-3.9-1-5.3-1.9-1.4-1-2.4-2.2-3-3.8-.6-1.5-.7-3.3-.4-5.2.4-2.9 1.6-5.1 3.6-6.5s4.5-1.9 7.7-1.4c2.1.3 3.9 1 5.3 1.9 1.4 1 2.4 2.2 3 3.8.6 1.5.7 3.3.4 5.3-.4 2.9-1.6 5.1-3.6 6.5s-4.6 1.9-7.7 1.4zm.7-5.3c1.8.3 3.3.1 4.3-.4 1.1-.5 1.7-1.5 1.9-2.8.2-1.4-.1-2.5-1-3.3s-2.2-1.4-4-1.6c-1.8-.3-3.2-.1-4.3.4s-1.7 1.5-1.9 2.9.1 2.4 1 3.3 2.2 1.4 4 1.6zm-6.3-19.8 1.4-5 14.3 3.9 2.3-8.3 4.2 1.6-3.5 12.8-18.6-5.1zm2.3-26.4 2-5.2 2.4 5.6-1.7 4.3zm2.8 9 5-12.9 3.8 1.5-3.2 8.2 3.2 1.2 3-7.7 3.8 1.5-3 7.7 3.4 1.3 3.4-8.7 3.6 1.9-5.1 13-18-7zm15.4-12.6c-1.8-1-3.3-2.2-4.3-3.5-1-1.4-1.5-2.9-1.6-4.5 0-1.6.4-3.3 1.3-5.1 1.1-2.1 2.5-3.5 4.1-4.2s3.4-.8 5.3-.1l-2 4.8c-.8-.2-1.5-.2-2.1 0s-1.1.7-1.5 1.6c-.5.9-.6 1.7-.5 2.4.1.8.5 1.4 1.2 2.1.6.6 1.5 1.2 2.5 1.8 1.7.9 3.2 1.3 4.4 1.1s2.2-1 2.9-2.4c.6-1.1.9-2.2.9-3.1l-2.1-1.1-1.5 2.8-3.5-1.9 3.8-7 7.7 4.1c.2 1.3.2 2.7 0 4.2-.3 1.5-.8 2.9-1.5 4.2-1.5 2.7-3.4 4.4-5.7 5.1-2.3.6-4.9.2-7.7-1.3zm2.7-24.5 2.9-4.3 16.1 10.7-2.9 4.3zm13-2.3c-1.7-1.4-2.9-2.8-3.6-4.4-.7-1.5-.9-3.1-.6-4.7s1-3.2 2.3-4.7c1.9-2.3 4-3.5 6.4-3.7s4.8.7 7.3 2.8c1.7 1.4 2.9 2.8 3.6 4.4.7 1.5.9 3.1.6 4.7s-1 3.2-2.3 4.8c-1.8 2.3-4 3.5-6.4 3.7s-4.9-.7-7.4-2.7zm3.4-4.2c1.4 1.2 2.7 1.8 3.9 1.9 1.2 0 2.2-.4 3.1-1.5s1.1-2.2.8-3.3-1.2-2.3-2.6-3.5c-1.4-1.1-2.7-1.8-3.9-1.8s-2.2.4-3.1 1.5-1.1 2.2-.8 3.3c.3 1.2 1.2 2.3 2.6 3.5zm9.7-25.4 10.3-9.2 2.7 3-6.6 5.8 2.3 2.5 6.2-5.5 2.7 3-6.2 5.5 2.5 2.8 6.9-6.2 2.4 3.3-10.4 9.3-12.8-14.4zm31-7.3c-.3-.4-.6-.6-1.1-.7-.4 0-1 0-1.8.4l-2.4 1.1c-2 .9-3.6 1.3-5 1.1-1.4-.1-2.5-.9-3.5-2.2-1.1-1.6-1.4-3.2-.8-4.9s1.8-3.2 3.8-4.6 3.8-2.1 5.5-2c1.7 0 3.1.8 4.2 2.1l-3.8 3.3c-.6-.5-1.2-.8-1.8-.8s-1.2.2-2 .8-1.3 1.1-1.4 1.6c-.2.5-.1 1 .2 1.4s.6.6 1.1.7c.4 0 1-.1 1.8-.5l2.4-1.1c2.1-.9 3.8-1.3 5.1-1.1s2.5.9 3.4 2.3c1.1 1.6 1.5 3.3 1 5s-1.8 3.3-4 4.9c-2.1 1.5-4.1 2.2-5.9 2.1-1.8 0-3.4-1-4.9-2.7l4.2-2.9c.6.7 1.3 1 2.1 1 .7 0 1.5-.3 2.4-.9.8-.6 1.3-1.1 1.4-1.7s0-1-.3-1.5zm6.3-14.9-4.9 2.7-2.1-3.9 14.4-7.9 2.1 3.9-4.9 2.7 7.1 13-4.5 2.5-7.1-13zm25.9-.1-6.2 2.6.3 3.9-4.7 2-1.3-20.3 5.8-2.4 13.5 15.3-4.9 2-2.5-3zm-7.4-9.1.8 7.5 4-1.7zm11.7-9.1 7.3-2c3.1-.8 5.6-.7 7.6.4s3.4 3.2 4.3 6.2c.8 3.1.6 5.6-.6 7.7s-3.4 3.5-6.4 4.3l-7.2 1.9-5-18.6zm14.2 6.1c-.5-1.7-1.1-2.8-2.1-3.5s-2.1-.8-3.5-.4l-2.6.7 2.8 10.2 2.5-.7c1.5-.4 2.5-1.1 2.9-2.2.5-1.1.5-2.4 0-4.1zm9-.4-1.5-11.2 5.1-.7 1.6 11.4c.2 1.3.5 2.2 1.1 2.8.6.5 1.4.7 2.4.6 1.1-.1 1.8-.6 2.1-1.2.4-.7.5-1.7.3-3l-1.6-11.4 5.1-.7 1.6 11.2c.4 2.8 0 5-1.2 6.6s-3.1 2.6-5.8 2.9c-2.6.4-4.7 0-6.3-1.2-1.5-1.2-2.5-3.2-2.9-6.1zm31.2 1.5-6.7.2-1.1 3.7h-5.1c0 .1 6-19.3 6-19.3l6.2-.2 7.1 19.1-5.3.2-1.3-3.7zm-3.7-11.2-2 7.3h4.3c0-.1-2.4-7.3-2.4-7.3zm14.1-4.1 5.1.5-1.4 14.8 8.5.8-.9 4.4-13.2-1.3zm22.2 12.7c.5-2.1 1.4-3.8 2.5-5.1s2.5-2.2 4-2.6c1.6-.4 3.3-.4 5.1 0 2.3.6 4 1.6 5 3.1s1.4 3.3 1.2 5.5l-5.1-.7c0-1-.1-1.8-.5-2.4-.3-.6-1-1-1.9-1.2-1.2-.3-2.2 0-3.1.7-.9.8-1.5 2.1-2 3.8-.5 1.8-.5 3.2-.1 4.4.4 1.1 1.2 1.8 2.5 2.2 1 .3 1.8.2 2.5-.2s1.2-1.1 1.6-2l5 1.3c-.7 2.2-2 3.8-3.8 4.8-1.8.9-3.9 1.1-6.5.4-2.8-.7-4.8-2.1-5.9-4.2s-1.3-4.7-.5-7.7zm23.8-3.5 4.9 1.7-6.5 18.1-4.9-1.7zm4.8-4.5 5.2 1.9-5.5 2.5-4.3-1.6 4.6-2.9zm6.7 24.2 9.4-11 5 2.3-13.9 14.8-5.7-2.7 2.5-20.1 5.1 2.4zm17.9-6.4 4.4 2.6-9.7 16.6-4.5-2.6 9.7-16.6zm3 12.9c1.3-1.8 2.7-3.1 4.2-3.9s3.1-1.1 4.7-1 3.2.8 4.8 1.9c2 1.4 3.1 3 3.5 4.7s.1 3.6-.9 5.6l-4.5-2.5c.4-.9.6-1.8.4-2.4-.1-.7-.6-1.3-1.3-1.8-1-.7-2-.9-3.1-.4s-2.2 1.4-3.2 2.9c-1.1 1.5-1.6 2.8-1.7 4 0 1.2.5 2.1 1.5 2.9.8.6 1.6.8 2.4.7s1.5-.6 2.2-1.3l4.2 3c-1.5 1.8-3.2 2.8-5.2 3.1s-4.1-.4-6.2-1.9c-2.4-1.7-3.7-3.7-4-6.1-.3-2.3.5-4.8 2.3-7.4zm16.8 12.2c1.5-1.6 3-2.7 4.6-3.2 1.6-.6 3.2-.7 4.8-.3s3.1 1.3 4.6 2.6c2.2 2 3.3 4.2 3.3 6.6s-1.1 4.8-3.3 7.1c-1.5 1.6-3 2.7-4.6 3.3s-3.2.7-4.8.3-3.1-1.3-4.6-2.6c-2.1-2-3.2-4.2-3.3-6.6 0-2.4 1.1-4.8 3.2-7.2zm4 3.6c-1.3 1.3-2 2.6-2.1 3.8-.2 1.2.3 2.3 1.3 3.2s2.1 1.3 3.3 1.1 2.4-1 3.6-2.4c1.2-1.3 1.9-2.6 2.1-3.8s-.3-2.3-1.3-3.2-2.1-1.3-3.3-1-2.4 1-3.6 2.4zm12.5 11.4 6 6.9-3.3 2.9-6-6.9zm16.1 4.7 3.4 4.9-8.3 10.9 13.2-3.9 3.4 4.9-15.9 10.9-2.7-3.9 9.4-6.5-11.5 3.4-2.1-3 7.3-9.5-9.4 6.5-2.6-3.8 15.9-10.9zm14.2 21.8 2.5 4.5-16.9 9.2-2.5-4.5zm4.9 9.2 2.1 4.7-13.5 6 3.5 7.8-4.3 1.4-5.4-12.1zm6.9 16.5 1.7 4.9-18.2 6.4-1.7-4.9zm.3 15.4-1.4-5.5 4.3-1.1 4.1 15.9-4.3 1.1-1.4-5.5-14.4 3.7-1.3-5 14.4-3.7zm-6.4 25.2-1-6.6-3.8-.6-.7-5.1 20 3.8.9 6.2-18.1 9.2-.8-5.2zm10.7-5-7.4-1.1.6 4.3zm5.8 13.4.2 7.7c0 2.7-.4 4.6-1.5 5.9-1.1 1.2-2.5 1.9-4.4 2-2.5 0-4.4-.9-5.6-2.8l-7.6 4.2-.2-5.3 6.6-3.4v-.3-2.8l-6.7.2v-4.9c-.1 0 19.1-.6 19.1-.6zm-6 10.7c.8 0 1.4-.3 1.8-.7.4-.5.6-1.3.5-2.4v-2.5l-5 .1v2.6c.1 1.1.3 1.9.8 2.3.4.4 1.1.6 1.9.6zm-324.1 41.5-1.5-5.4 4.3-1.2 4.4 15.8-4.3 1.2-1.5-5.4-14.3 4-1.4-5zm-3 25.8-2.5-6.2-3.9.3-1.9-4.7 20.3-1 2.3 5.8-15.5 13.2-1.9-4.9 3-2.4zm9.2-7.3-7.5.7 1.6 4zm8.6 9.3 2.2 3.9-6.4 11.7 9.8-5.5 2.3 4.2-16.8 9.4-2.2-3.9 6.4-11.8-9.9 5.5-2.3-4.2 16.8-9.4zm1.6 22.5c1.8-1.3 3.5-2.1 5.2-2.4s3.3-.1 4.7.5 2.8 1.8 3.9 3.3c1.4 1.9 2.1 3.8 1.9 5.5s-1 3.4-2.6 5.1l-3.5-3.8c.7-.8 1.1-1.5 1.2-2.2s-.1-1.4-.7-2.2c-.7-1-1.7-1.4-2.8-1.4-1.2 0-2.5.6-4 1.7s-2.4 2.2-2.8 3.3-.2 2.2.5 3.2c.6.8 1.3 1.3 2.1 1.4.8 0 1.6 0 2.5-.6l3.1 4.2c-2 1.3-4 1.7-5.9 1.3-2-.4-3.7-1.6-5.3-3.7-1.7-2.4-2.4-4.7-1.9-7 .4-2.3 1.9-4.4 4.5-6.3zm20 10.3 5.3 5.6c1.8 1.9 2.8 3.7 2.8 5.4s-.6 3.1-2 4.4c-1.8 1.7-3.8 2.3-6 1.6l-2.9 8.2-3.7-3.9 2.6-6.9-.2-.2-.2-.2-1.7-1.8-4.8 4.6-3.3-3.5 14-13.2zm2.6 12c.6-.6.9-1.1.8-1.7 0-.6-.4-1.3-1.2-2.1l-1.7-1.8-3.6 3.4 1.8 1.9c.8.8 1.5 1.2 2.1 1.3.6 0 1.2-.2 1.8-.8zm10.2 1.3 10.6 8.9-2.6 3.1-6.7-5.7-2.2 2.6 6.3 5.3-2.6 3.1-6.3-5.3-2.4 2.8 7.1 6-2.9 2.8-10.6-9 12.4-14.7zm12.9 10.7 6.4 4.2c2.6 1.7 4.2 3.7 4.7 6 .5 2.2-.1 4.7-1.8 7.3-1.8 2.7-3.8 4.2-6.2 4.7-2.4.4-4.9-.2-7.5-2l-6.2-4.1zm4.9 14.7c1-1.4 1.4-2.7 1.3-3.9-.1-1.1-.8-2.1-2-2.9l-2.3-1.5-5.8 8.9 2.1 1.4c1.3.9 2.5 1.1 3.6.7s2.1-1.3 3.1-2.7zm7.2 4.7c.9-1.9 2.1-3.4 3.4-4.5 1.3-1 2.8-1.6 4.5-1.7 1.6 0 3.3.3 5.1 1.2 2.7 1.3 4.4 3.1 5.1 5.4s.4 4.9-1 7.8c-.9 1.9-2.1 3.4-3.4 4.5-1.3 1-2.8 1.6-4.5 1.7-1.6 0-3.4-.3-5.2-1.2-2.6-1.3-4.3-3.1-5.1-5.4s-.4-4.9 1-7.8zm4.9 2.3c-.8 1.7-1.1 3.1-.9 4.3s.9 2.1 2.1 2.7 2.4.6 3.4 0c1.1-.6 2-1.7 2.8-3.3s1.1-3 .9-4.2-.9-2.1-2.2-2.7c-1.2-.6-2.4-.6-3.4 0-1.1.6-2 1.7-2.8 3.3zm25 .4 7.3 2.1c3 .9 5.1 2.3 6.3 4.3s1.3 4.5.4 7.5c-.9 3.1-2.4 5.2-4.5 6.3s-4.7 1.2-7.8.4l-7.1-2.1 5.3-18.5zm9 12.6c.5-1.7.5-3 0-4.1-.4-1.1-1.4-1.8-2.8-2.2l-2.6-.7-2.9 10.2 2.5.7c1.5.4 2.7.3 3.7-.4s1.7-1.8 2.2-3.5zm10.4-7.3 13.7 2.2-.6 4-8.7-1.4-.5 3.4 8.1 1.3-.7 4-8.1-1.3-.6 3.7 9.2 1.5-1.1 3.9-13.8-2.2 3.1-19zm34.7 18.7h-6.7l-1.2 3.7h-5.1l6.6-19.3h6.2l6.6 19.3h-5.3l-1.2-3.7zm-3.4-11.3-2.2 7.2h4.3l-2.2-7.2zm11.9-4.6 5.1-.6 1.7 14.7 8.5-1v4.5l-13.1 1.5zm15.8-1.8 5.8-1.4 7.3 11.6 1.1-13.7 5.7-1.4 4.6 18.7-4.6 1.1-2.7-11.1-.9 12-3.6.9-6.3-10.2 2.7 11.1-4.5 1.1zm22.9-6.1 12.9-5 1.5 3.8-8.2 3.2 1.2 3.2 7.7-3 1.5 3.8-7.7 3 1.3 3.4 8.7-3.4 1.1 3.9-13 5-7-18zm15.9-6.5 4.6-2.3 8.4 17.3-4.6 2.3zm7.9-3.8 6.5-4c2.7-1.7 5.2-2.2 7.4-1.7 2.3.5 4.2 2.1 5.8 4.8 1.7 2.7 2.2 5.2 1.6 7.6-.6 2.3-2.3 4.3-5 6l-6.3 3.9-10-16.5zm15.4 1.9c-.9-1.5-1.9-2.4-3-2.8s-2.2-.2-3.5.6l-2.3 1.4 5.5 9.1 2.2-1.3c1.3-.8 2.1-1.8 2.2-2.9.1-1.2-.2-2.5-1.1-4zm19.4-6.8-5.3 4.2 1.4 3.6-4 3.2-6.8-19.2 4.9-3.9 17.1 11.1-4.1 3.3-3.2-2.2zm-9.6-6.8 2.8 7 3.4-2.7zm11-15.2 3-3.4 13.1 2.2-8.3-7.5 3.2-3.6 14.3 12.9-3 3.3-13.2-2.2 8.4 7.6-3.2 3.6zm13.1-15 8-11.3 3.3 2.3-5.1 7.2 2.8 2 4.8-6.7 3.3 2.4-4.8 6.7 3 2.1 5.4-7.6 3.1 2.7-8 11.4-15.7-11.1zm25.8-14.3-10.4-10.1 2.6-4.8 13.9 14.8-3 5.5-19.9-3.8 2.7-4.9zm-7-16.9 5.2-12.8 3.8 1.5-3.3 8.1 3.2 1.3 3.1-7.6 3.8 1.5-3.1 7.6 3.4 1.4 3.5-8.6 3.6 1.9-5.2 12.9-17.9-7.2zm22.3-22.1c-.5-.1-.9 0-1.3.1s-.8.7-1.2 1.5l-1.2 2.3c-1 1.9-2 3.3-3.2 4-1.2.8-2.5.9-4.1.5-1.9-.5-3.1-1.6-3.7-3.3s-.6-3.7 0-6c.7-2.4 1.7-4.1 3-5 1.3-1 2.9-1.3 4.6-1l-.8 5c-.8 0-1.5.1-1.9.5-.5.3-.8.9-1.1 1.8s-.3 1.6-.1 2.1.5.8 1 1c.5.1.9 0 1.2-.2s.7-.7 1.1-1.5l1.2-2.4c1-2 2.1-3.4 3.3-4.1 1.1-.7 2.5-.8 4.1-.4 1.9.5 3.2 1.6 3.9 3.2s.7 3.7 0 6.3c-.7 2.5-1.8 4.3-3.2 5.4s-3.3 1.4-5.5 1l1.4-4.9c.9.1 1.7 0 2.2-.5s1-1.2 1.3-2.3c.3-1 .3-1.7 0-2.2-.2-.5-.6-.8-1.2-1z" fill="#d6d6cc"/><path d="m200 61.8c-76.2 0-138.2 62-138.2 138.2s62 138.2 138.2 138.2 138.2-62 138.2-138.2-62-138.2-138.2-138.2" fill="#68813c"/><path d="m200 74.6c-69.2 0-125.4 56.3-125.4 125.4s56.3 125.4 125.4 125.4 125.4-56.3 125.4-125.4-56.3-125.4-125.4-125.4" fill="#173557"/><path d="m93.6 203.1c-1.4-1.6-2-3.6-1.9-5.8.3-5.5 4.2-7.6 8-7.4s7.6 2.9 7.3 8.3c-.1 2-1 3.9-2.5 5.3l-1.7-2c1-.9 1.5-2.2 1.6-3.5.2-3.6-2.4-5.3-4.8-5.4s-5.1 1.2-5.3 4.8c0 1.3.4 2.8 1.3 3.8l-2 1.8zm-1.5 4.2 14.7-1.1.2 2.8-14.7 1.1zm19.3 3.4-.2-3-3-1.4h-.1l.2 2.3 3 2.1zm-17.3 12.6-.6-2.8 13.4-8.9.5 3.1-10.4 6.6 12.1 2.2.6 3.1zm2.57 10.48 13.972-4.566.87 2.661-13.973 4.567zm9.73 18.62c-2-.8-3.5-2.3-4.3-4.2-2.3-5 .1-8.7 3.6-10.3s8.1-1 10.3 3.9c.8 1.8 1 3.9.2 5.9l-2.4-.9c.5-1.3.3-2.7-.2-3.8-1.5-3.3-4.6-3.6-6.8-2.5-2.2 1-3.9 3.4-2.4 6.7.5 1.2 1.6 2.3 2.9 2.8l-.9 2.5zm15.1 12.8c-3.1 2.1-7.6 2.4-10.6-1.9s-1.3-8.4 1.8-10.6c3.2-2.2 7.8-2.4 10.7 1.8s1.2 8.5-2 10.7m-7.1-10.2c-1.9 1.4-3.3 4-1.3 6.9s4.9 2.4 6.9 1.1c2.1-1.4 3.5-4.1 1.5-7s-5.1-2.4-7.1-1m8.508 13.893 1.74-1.652 5.37 5.658-1.741 1.652zm21.692 12.807-7.7 2.1-.4-.3.1-8-6.5 8.5-2.2-1.7 8.9-11.7 2.6 2-.2 7.8 7.6-2.2 2.5 2-9 11.6-2.2-1.7zm.448 12.715 7.283-12.77 2.432 1.388-7.283 12.77zm15.552-8.315-4.9 11.1 7 3.1-1.1 2.3-9.5-4.2 5.9-13.4zm5.367 17.898 4.47-14.004 2.667.85-4.47 14.005zm14.533-8.598-4.6-.9.5-2.5c4.2.8 7.8 1.5 12 2.3l-.5 2.5-4.6-.9-2.3 12-2.7-.5 2.3-12zm20.3 11.6-7.8-.3-1.4 2.7h-3c0-.1 7.1-14.6 7.1-14.6h3.1c0 .1 6.2 15 6.2 15h-3c0-.1-1.2-2.9-1.2-2.9zm-3.6-9-3 6.2 5.5.2zm25.2 9.8-3.3.4-4.9-4.3-2.7.4.6 4.9-2.8.4-1.9-14.6c2.3-.3 4.7-.6 7-.9 3.5-.4 5.6 1.6 5.9 4.1.3 2-.4 4.1-3.1 5.1l5.1 4.4v.2zm-11.9-10.6.6 4.7 4.2-.6c1.8-.2 2.4-1.5 2.2-2.7s-1.1-2.2-2.8-2zm31.9-3.5c1.3 3.5.5 7.8-4.4 9.6-1.7.6-3.8 1.4-5.5 2l-5.1-13.8c1.7-.6 3.8-1.4 5.5-2 4.8-1.8 8.1.8 9.5 4.2m-8.2 8.1 2.9-1.1c3.2-1.2 3.6-3.9 2.7-6.1-.9-2.1-2.9-3.8-5.9-2.7l-2.9 1.1 3.3 8.8zm24.5-16.9c1.9 3.3 1.8 7.8-2.7 10.4s-8.5.6-10.4-2.7-1.7-8 2.7-10.6 8.6-.5 10.5 2.8m-10.8 6.4c1.3 2.1 3.7 3.6 6.7 1.9 3-1.8 2.8-4.7 1.7-6.8-1.2-2.2-3.8-3.9-6.8-2.1s-2.9 4.9-1.6 7m25.7-15.1-3 2.9 3 3.1-2 1.9-10.1-10.7 5.1-4.8c5.3-5 12.4 2.6 7.1 7.6m-4.9 1.1 3.1-2.9c2.6-2.5-1-6.2-3.6-3.8l-3.1 2.9zm19.3-15.5-4.7 6.2 1.4 2.7-1.8 2.4-7.7-14.2 1.8-2.4 15.8 3.5-1.8 2.4-3-.7zm-9.4-2.2 3.3 6 3.3-4.4-6.7-1.6zm22.5-15.1-1.5 3-6.4 1.6-1.2 2.4 4.4 2.3-1.3 2.5-13.1-6.7 3.3-6.3c1.6-3.1 4.5-3.7 6.8-2.5 1.8.9 3.2 2.7 2.4 5.5l6.5-1.7h.2zm-15.6 3.7 4.2 2.2 2-3.8c.8-1.6.1-2.8-.9-3.3s-2.5-.4-3.3 1.2l-2 3.8zm17.7-18.6-2.3 7.4 2.3 2-.9 2.9-12-10.8.9-2.9 16-1.9-.9 2.9-3 .4zm-9.6 1.1 5.2 4.5 1.7-5.3-6.8.7zm1-20.3.4-2.8 14.6 1.9-.2 1.7-10.9 6.5 9.9 1.2-.4 2.8-14.6-1.9.3-2.2 10-6.1zm-4.2-16 3 2.2v2.3l-2.9-1.5v-3.1c-.1 0 0 0 0 0zm19-2.4v-3.1c-.1 0-14.6 7.2-14.6 7.2v3.1c.1 0 15.1 6.1 15.1 6.1v-3c-.1 0-2.9-1.2-2.9-1.2l-.3-7.8 2.7-1.4zm-5.1 8.1-6.4-2.5 6.2-3zm-141.7-90.2c-.5 1.1-1.4 2-2.6 2.4-3 1.2-5.1-.3-5.9-2.3-.9-2.1-.4-4.7 2.5-5.9 1.1-.4 2.3-.5 3.4 0l-.6 1.4c-.7-.3-1.5-.2-2.2 0-1.9.8-2.2 2.6-1.6 3.9s1.9 2.4 3.9 1.5c.7-.3 1.4-.9 1.7-1.6l1.5.6zm14.1-7.3c.5 2.2-.3 4.6-3.2 5.4-3 .7-4.9-1-5.4-3.2s.3-4.7 3.2-5.5c2.9-.7 4.9 1.1 5.4 3.3m-7 1.8c.4 1.4 1.5 2.6 3.5 2.1s2.4-2.2 2-3.5c-.3-1.4-1.5-2.8-3.5-2.3s-2.4 2.3-2 3.7m15.8-7.6.8 7.1 4.4-.5.2 1.5-6.1.6-.9-8.5zm18.9 7.9-6.5-.2c0-2.8.2-5.7.3-8.6l6.5.2v1.6l-4.9-.1v2l4.6.1v1.5l-4.7-.1v1.9l4.8.1v1.6zm-.9-11.2h-1.8l-1 1.6 1.3.1 1.4-1.6zm15.4 6.3c-.5-.6-1.3-1.1-2.1-1.2-1.8-.3-3.2.9-3.4 2.7-.2 1.4.4 3 2.5 3.3.7.1 1.3 0 2-.4l.2-1.5-2.2-.3.2-1.4 3.7.6-.5 3.6c-1 .8-2.1 1.2-3.7 1-3.2-.5-4.2-2.8-3.9-5 .4-2.4 2.2-4.4 5.2-3.9 1.2.2 2.2.8 3 1.8l-1.2.9zm7.45 8.27 2.27-8.294 1.542.422-2.269 8.295zm18.45 2.03c-.9 2-3 3.6-5.8 2.4-2.8-1.1-3.3-3.7-2.5-5.8.9-2.1 3.1-3.6 5.8-2.5 2.8 1.1 3.3 3.8 2.4 5.9m-6.7-2.8c-.5 1.3-.4 3 1.5 3.8s3.2-.3 3.7-1.6c.6-1.3.4-3.1-1.5-3.9s-3.3.4-3.8 1.8" fill="#d6d6cc"/><path d="m150.1 255.5c13.2 13.2 30.8 20.5 49.5 20.5s36.3-7.3 49.5-20.5 20.5-30.8 20.5-49.5v-75.8h-41.2l-5.8 10.3h36.7v65.6c0 16-6.2 31-17.5 42.2-11.3 11.3-26.3 17.5-42.2 17.5s-30.9-6.2-42.2-17.5c-1.4-1.4-2.8-3-4.1-4.5l-5.4 9.5c.7.8 1.4 1.5 2.2 2.3" fill="#68813c"/><path d="m149.6 238.5c-6.3-9.6-9.7-20.9-9.7-32.6v-65.6h76.2l5.8-10.3h-92.3v75.8c0 15.6 5.1 30.4 14.4 42.5l5.6-9.9z" fill="#fff"/><path d="m227 195.4c-1.4-1.5-14-12-19.6-15.5h-4l.2.3-2.7-2.6 1.2 2.5c-.4 0-1 .2-1.3.6-.2.3-.3.6-.2.9v.2c-.2-.3-.4-.5-.6-.6l-.4-.4-.6 1.2v-.2-.2c0-.3 0-.6-.2-.9-.3-.4-.9-.5-1.3-.6l1.2-2.5-2.7 2.6.2-.3h-4c-5.6 3.5-18.2 13.9-19.6 15.5-.4.5-.3.9 0 1.2.4.4 1.4.7 2.7.7 1.9 0 4.2-.5 5.5-1.5.2-.2.5-.3.7-.5-2.2 2.6-4.2 5.2-5 6.9-.5 1.1-.5 1.9 0 2.3.2.2.5.2.9.2 2 0 5.4-2.1 6.1-2.7.2-.2.9-.9 1.7-1.8-1.6 3.2-2.7 6-2.7 7.1 0 .9.4 1.7 1.3 2 .4.2.9.3 1.4.3 1 0 2.1-.4 2.8-1.1 1-.9 2.5-3.6 3.7-6.1-.3 1.7-.6 3.6-.8 5.7v.2c-.2 1.2.7 4.6 2.3 5.1h.4c.5 0 1.2-.3 1.8-1.5.8-1.3 1.3-3 1.7-4.7v2.6c.1 2.6.6 5.8 2.4 5.8s2.9-3.2 3.4-6.8c.3 1.1.8 2.2 1.3 3.1.7 1.2 1.3 1.5 1.8 1.5h.4c1.6-.5 2.5-3.9 2.3-5.1v-.2c-.3-2.1-.6-4-.8-5.7 1.3 2.6 2.7 5.2 3.7 6.1.8.7 1.8 1.1 2.8 1.1s1 0 1.4-.3c.8-.4 1.3-1.1 1.3-2 0-1.1-1.1-3.9-2.7-7.1.8.9 1.5 1.6 1.7 1.8.7.6 4.1 2.7 6.1 2.7s.7 0 .9-.2c.6-.4.6-1.2 0-2.3-.8-1.7-2.8-4.2-5-6.9.3.2.5.4.7.5 1.3 1 3.7 1.5 5.5 1.5s2.2-.2 2.7-.7c.3-.3.4-.7 0-1.2" fill="#2b3647"/><path d="m224.4 195.8c.4 0 .5-.3.7-.3-3-2.7-13.2-11-18.2-14.2h-.9l1.4 2.1s.8 1.8 1.9 3.3c.9 1.1 5 4.1 7.7 6.1.6.5 1.2.9 1.6 1.2 1.1.9 4.3 1.8 5.8 1.8m-2.2 7.4c0-.1 0-.2-.2-.4-2.3-5.2-10.8-14-14.2-17.1l-2.5-1.9c0 .8.7 2.6 1.7 5.1 1.2 2.9 8.8 10.9 10 11.9.6.6 3.8 2.3 5.2 2.3" fill="#fff" fill-rule="evenodd"/><path d="m214.4 208.1c.5 0 1-.2 1.2-.4 0-.1.1-.2.1-.4 0-1.6-3-9.4-7.8-16.1l-.4-.6-5.4-9h-.2c.1.5.4 1.2.6 1.9.4 1.3.9 2.9 1.3 4.2.7 2.4 2 6.8 3.1 9.2 1.5 3.5 4.2 9.2 5.5 10.4.5.4 1.2.7 2 .7m-8.4 4s.2 0 .4-.3c.7-.9 1.1-2.7 1-3.2v-.2c-.8-10-3.3-18.2-4.3-21.3l-2-2.4c.2 3.5.7 9.6.9 12l.3 2.5c.3 3.1 1.1 8.9 3 12.2.4.6.6.8.7.8" fill="#fff" fill-rule="evenodd"/><path d="m214.3 186.4c1.3 1.6.2 4.3-2 2.9s1 1 1 1 4.7-1.1 1.6-3.6c-.5-.4-.1 0-.6-.3m5 4c1.3 1.6-.1 3.8-2.3 2.4s.6.9.6.9 5.8.4 2.6-2.8c-.5-.5-.3-.2-.8-.5m-8.2-1.4c0 1-.2 3.6-2.8 2.2-.7-.6-.5-.3-.5-.3s.1.3.5.8 4 1.1 3.3-2.3c-.5-.5-.5-.4-.5-.4m4.3 4.6c0 1-.2 3.6-2.8 2.2-1.4-.9-1.2-.5-1.2-.5s.6.5 1 1 4.2 1 3.5-2.4c-.5-.5-.5-.4-.5-.4" fill="#2b3647" fill-rule="evenodd"/><path d="m205.3 192.5c.4.8 4 1.7 3.2-.8.6.5.5 1.6 0 1.9-1 .6-2.7 0-3-.6s0-.6 0-.6m1.7 5.5c.5 1 5.3 2.2 4.2-1 .8.6.7 2.1 0 2.6-1.4.8-3.6 0-4-.8-.5-.8-.1-.7-.1-.7m-2.3-5.1c.2 1-.6 2.1-1.3 2.2-.6 0-1.8 0-2.1-1.1.1 1.5.8 2.1 2.3 1.8 1.4-.3 1.6-1.5 1.1-2.9m1.3 6.6c.2 1-.6 2.4-1.5 2.5s-2.4-.9-2.6-1.8c.1 1.5 1.4 2.7 2.8 2.5 1.4-.3 1.7-1.7 1.3-3.1" fill="#2b3647" fill-rule="evenodd"/><path d="m175.2 195.8c-.4 0-.5-.3-.7-.3 3-2.7 13.2-11 18.2-14.2h.9l-1.4 2.1s-.8 1.8-1.9 3.3c-.9 1.1-5 4.1-7.7 6.1-.6.5-1.2.9-1.6 1.2-1.1.9-4.3 1.8-5.8 1.8m2.2 7.4c0-.1 0-.2.2-.4 2.3-5.2 10.8-14 14.2-17.1l2.5-1.9c0 .8-.7 2.6-1.7 5.1-1.2 2.9-8.8 10.9-10 11.9-.6.6-3.8 2.3-5.2 2.3" fill="#fff" fill-rule="evenodd"/><path d="m185.1 208.1c-.5 0-1-.2-1.2-.4 0-.1-.1-.2-.1-.4 0-1.6 3-9.4 7.8-16.1l.4-.6 5.4-9h.2c-.1.5-.4 1.2-.6 1.9-.4 1.3-.9 2.9-1.3 4.2-.7 2.4-2 6.8-3.1 9.2-1.5 3.5-4.2 9.2-5.5 10.4-.5.4-1.2.7-1.9.7m8.4 4s-.2 0-.4-.3c-.7-.9-1.1-2.7-1-3.2v-.2c.8-10 3.3-18.2 4.3-21.3l2-2.4c-.2 3.5-.7 9.6-.9 12l-.3 2.5c-.3 3.1-1.1 8.9-3 12.2-.4.6-.6.8-.7.8m5.9 2.2c-.3 0-.9-1.3-1.1-4.4 0-1.3 0-14.3.6-25.2l.9-1.3c.1.2.8.4.8.5.2 2.2 1.5 17.7 1.4 21.9 0 5-2.1 8.5-2.7 8.5" fill="#fff" fill-rule="evenodd"/><path d="m185.3 186.4c-1.3 1.6-.2 4.3 2 2.9s-1 1-1 1-4.7-1.1-1.6-3.6c.5-.4.1 0 .6-.3m-5.1 4c-1.3 1.6.1 3.8 2.3 2.4s-.6.9-.6.9-5.8.4-2.6-2.8c.5-.5.3-.2.8-.5m8.2-1.4c0 1 .2 3.6 2.8 2.2.7-.6.5-.3.5-.3s-.1.3-.5.8-4 1.1-3.3-2.3c.5-.5.5-.4.5-.4m-4.3 4.6c0 1 .2 3.6 2.8 2.2 1.4-.9 1.2-.5 1.2-.5s-.6.5-1 1-4.2 1-3.5-2.4c.5-.5.5-.4.5-.4m10.3-1c-.4.8-4 1.7-3.2-.8-.6.5-.5 1.6 0 1.9 1 .6 2.7 0 3-.6s0-.6 0-.6m-1.8 5.5c-.5 1-5.3 2.2-4.2-1-.8.6-.7 2.1 0 2.6 1.4.8 3.6 0 4-.8.5-.8.1-.7.1-.7m2.4-5.1c-.2 1 .6 2.1 1.3 2.2.6 0 1.8 0 2.1-1.1-.1 1.5-.8 2.1-2.3 1.8-1.4-.3-1.6-1.5-1.1-2.9m-1.4 6.6c-.2 1 .6 2.4 1.5 2.5s2.4-.9 2.6-1.8c-.1 1.5-1.4 2.7-2.8 2.5-1.4-.3-1.7-1.7-1.3-3.1m5.2-5.2c-.2 1.3 1.2 1.9 1.6 1.9s1.5 0 1.6-1.2c.3 0 .2.5.2.6 0 .2-.7 1.3-1.9 1.2-1.2 0-1.7-.7-1.6-2.5m0 6.8c-.2 1.5 1.5 2.1 2 2.1s1.8-.3 1.9-1.6c.4 0 .2.7.1.9 0 .2-1 1.7-2.1 1.5-1-.2-2.1-.5-1.9-2.9" fill="#2b3647" fill-rule="evenodd"/><path d="m203.7 184c-1.3 1.8-1.9 2.4-1.9 2.4l.5.4c1.2-.8 1.7-1.2 1.7-1.2-.2-1.3-.3-1.5-.3-1.5" fill="#fff" fill-rule="evenodd"/><path d="m206.3 132.4s-.2-.2 0 0m106.8-10c-.3-.7-2.5-1.3-2.5-1.3-3.5-1-16.5-2.2-19.3-2.2-5 0-10.2.4-15.1.8 0 0-12.1.9-14.5 1.1-2.7.2-5.2.9-7.9 1.6 0 0-15.5 3.9-22.2 6.6-2 .8-3.8 1.6-5.1 3-2.2 2.3-5.8 8-5.8 8-.8 1.3-4.1 7.3-4.8 8.1-.8 1-4.9 1.7-5.1 1.7-.8 0-1.7-.3-1.7-.3s-1.4.7-1.7.2c0 0-1.2-.8-1.3-1.1 0-.6 3.1-4 2.9-4.3-.1-.2-1.1-1.3-.5-1.8s2.5.4 2.7.4-.5-4.2-.3-4.1c0 0-2.3.6-4.2.3-.9-.2 3.4-3 3.1-3.1-.6-.3-2.8-2.9-3.3-3.5h-.6c-1.1 0-3.1 3.3-3.1 3.3-.6-.8.3-3.6-.3-5.2-1.1-.2-6.3.5-6.3.5s.4 2.3-.1 4.2c-.2.8-2.2-2.4-3.4-2.8l-3.6 3.7s1.8.8 2.5 2.7c.3.7-3.8-.4-3.8-.4s-1.8 3.4-.4 4.3l3.4-.3s-1.3 1-1.2 1.7c.3 1.4 2.2 3.7 2.2 3.7s-.7 2.3-1.2 2.3c-1.8 0-10.8-9.1-10.8-9.1-.7-.6-1.1-1.5-1.4-2.3-.1-.3-3.9-6.2-5.9-7.7-1.8-1.3-6.6-3.1-6.6-3.1-7-2.6-21.8-6.2-21.8-6.2-2.7-.7-5.5-1.1-9.3-1.3-2.8-.2-5.7-.4-8.5-.6-1.6-.1-13.9-1-18.8-1h-.1c-4.4 0-8.9.6-12.8 1.1-2 .3-4 .6-6 1.2-.7.2-1.3.4-1.8.9-.3.3-.2.9-.1 1.2.4 1 2.2 1.4 3.1 1.5h.7c0 .1-.2.8-.2.8-.1.4 0 .9 1 1.6l.5.3-.2.5c-.2.6-.2 1.1 0 1.5.6.9 2.2 1.5 4.7 1.8h1.3c0 .1-.8 1.1-.8 1.1-.7.8-.6 1.8.3 2.6.6.6 2 .6 3 .7h1v.7c0 .7.5 1.4 1.1 2 .7.8 2.1.9 3.1.9h.7v.7c0 .9.2 1.5 1.9 2l.6.2v.6c-.2.3-.2.5 0 .7.6.9 2.9 1.3 3.9 1.5h.7c0 .1-.1.8-.1.8 0 .4 0 .7.1.9.3.4.9.7 1.8.9h1.6c.7 0 1.5 0 2.1.7.5.5 1.1.7 1.9.9l.8.2-.4.8c-.2.4-.2.8 0 1.2.2.5.7.9 1.5 1.1.4.1.9.2 1.4.3.6.1 1 .4 1.4.7.1.1.3.2.4.3.8.5 1.8.6 2.8.6h.9l-.3.9c-.4 1.4 0 2.1 1.5 2.6 2.1.8 4.5.9 6.5.9h.7v.7c-.1 2.3 2.7 2.7 5.8 2.9h1.6c0 .1-.7 1.1-.7 1.1-1.4 2.1-.6 2.6-.3 2.8.5.3 1.2.5 2.3.5h2.4v.6c0 1.9 2.6 2 3.3 2h1.5l-.2.8c-.1.6 0 1.1.2 1.5.4.5 1.1.8 2.2.9h.7l-.1.8c-.2 1-.4 2.5.1 3.3 0 .1.3.5 1.4.5h1.5v.6c0 1.1.1 2.2.9 3 .3.3.7.4 1.2.4s.8 0 1.4-.2l.8-.2v.9c0 1.7 1 2.8 2.3 2.8s.8 0 1.2-.2l.7-.3.2.8c.2.9.6 1.2 1.6 1.2s1.6-.2 2.5-.6l.7-.3.2.8c.3 1.3 1 1.4 1.5 1.4s1.7-.4 2.7-1.1l.7-.5.3.8c.2.4.5.9 1.2.9s.6 0 .9-.2c.9-.4 1.7-1 2.5-1.9.3-.3.7-.5 1.1-.5h1.1c.7-.2 1.4-.5 2.1-1.1l.4-.3h.4c.2.2.5.4.6.9v.3s-.1.3 0 .3c2.6-2.2 8.8-1.7 10.3-1.2l.9-1.9s1.4 2.2 2.3 1.5c.1-.1 9.3 4.2 9.5 3.9.4-.5.3-1.4.3-2 0-.3 0-.7-.2-1l1.3-.4s0 .2.1.2c.2.4.5.8 1 1.2.4.3.8.5 1.2.5s.6 0 .9-.4l.6-.7.5.7c.6 1 1.3 1.8 2.3 2.1h.3c.2 0 .5 0 .7-.1.1 0 .3-.1.3-.2.2-.1.4-.2.6-.2s.6.2.9.4c1.1.8 2 1.2 2.8 1.2h.6c.2 0 .7-.2.6-1.4v-1.2l1 .6c.5.2.8.4 1.1.4h.2c.3 0 .5-.1.7-.1.5 0 .8.1 1.1.3.2 0 .4.2.7.2h.2c.3 0 1.1 0 1.2-2v-1.1l1 .5c.6.3 1.3.7 1.9.7s.5 0 .7-.2c.3-.2.7-.8.6-2.8v-1.1l.9.4c.8.3 1.5.5 2.1.5s.8 0 1.2-.2c.7-.3.7-1.7.5-2.8v-.9l.8.1h.9c1 0 1.6-.3 2-1 .4-.6.3-1.6-.2-2.9l-.4-1.1 1.1.2h1c1 0 1.9-.3 2.7-.8.7-.4.3-1.5 0-2.3l-.3-.6.7-.3c.3-.1.6-.3.8-.7 0 0 .1-.3.1-.4v-.2c.2-.7 1-.8 1.5-.8h.2c.3 0 1.4-.4 1.1-2.2v-.7h.6c3.1-.2 5-.7 5.4-2.8v-.5h.9c2.2-.1 3.8-.3 4.4-1.8.2-.6 1.1-.8 2.7-1 .4 0 .9-.1 1-.2.5-.2.8-.6.9-1.3v-.5h.6c1.3 0 2.6-.3 3.8-.9.5-.3 1-.8.6-2.5v-.6c-.1 0 .5-.2.5-.2 1.5-.4 2-.8 2-1.6v-.7h.7c1.3 0 3-.4 3.6-1.1.1-.2.3-.4.1-.9l-.2-.8h.9c2 0 4.1-.2 5.7-1.2.5-.3.8-.7.8-1.1s-.1-.9-.5-1.3l-.9-.9 1.3-.2c1.2-.2 4.1-1 4.7-2 .5-.8-.7-1.6-.7-1.6l.6-.3c.7-.4 1.1-.8 1.3-1.5s1-.7 1.7-.7h.4c.5 0 1-.2 1.6-.4 3.8-1.3 2.8-3.7 2.8-3.7 1.8-.3 2.9-1 2.5-2.6 0 0 4.5 0 6.1-2.4.7-1.1 0-1.9 0-1.9s3.9-.4 3.9-2.5" fill="#fff"/><path d="m206.9 173.5c.5-.2 2.1-.4 1.3-1.2-.7-.7-1.6.2-2.4.6s-2.7.6-2.6 1.1c0 .5 2.7 0 3.7-.4m-12.3 1.2c.4.2 1 .2 1.4.3.3 0 .7.5 1 .4 1.3-.4-.2-1.2-1-1.5-.2 0-.4-.2-.4-.2-.5-.3-1.2-1.8-1.8-.9-.4.5.3 1.6.8 1.9m7.8 4.6c.7.4.8-1.7.6-2-.4-1-1.2-.3-1 .6 0 .1.3 1.4.4 1.4m-3.6-31.2h.5z" fill="#2b3647"/><path d="m212.1 140.9c0-.5-.2-1.1-.4-1.8-.2-.6-.8-.9-1.4-.8l-2.6.5c-.1 0-.2-.2-.1-.2l2.1-1.6c.4-.3.5-.9.2-1.3-.4-.6-.8-1.1-1.3-1.5-1.2-1.2-2-1.8-2.5-2.2-.4-.3-1-.2-1.3.2-.7 1-1.2 1.7-1.6 2.3-.1.2-.3 0-.3-.1l.3-2.9c0-.5-.3-1-.8-1.1-1-.2-2.4-.4-3.3-.4s-2.3.2-3.2.4c-.5.1-.8.6-.8 1.1l.3 2.9c0 .2-.2.3-.3.1-.4-.6-.9-1.3-1.6-2.3-.3-.4-.9-.5-1.3-.2-.6.4-1.3 1-2.5 2.2-.5.5-1 1.1-1.4 1.7-.2.3-.1.8.2 1.1l2.2 1.7c.1.1 0 .3-.1.3l-2.9-.6c-.3 0-.7.1-.8.4-.3.9-.5 1.6-.6 2.3v2.5c0 .2.2.3.4.3l2.9-.5-1.2.8.1.1c.5.9 1.4 2.7 1.8 3.5.1.2.2.4.2.6.2 1 .2 2-3.9-.3.3 1.7 2 2.9 4.5 3.6.2-1 .5-2 .7-2.1.9-.9 1-.5.5-1.8-.1-.4-.5-1-.8-1.4-.4-.5-1-1.2-1.4-1.8l1-1.3c.2-.3 0-.7-.3-.8-.5-.2-1.1-.2-1.9-.2h-.7c-.4.1-.7-.2-.7-.6v-.3c0-.3 0-.9.2-1.2 0-.3.4-.6.7-.6l2 .3c.2 0 .7.1 1.3 0 .3 0 .6-.3.5-.7-.2-.5-.5-1-.7-1.1l-1.4-1.4c-.3-.2-.3-.6 0-.9.2-.2.3-.4.5-.6.7-.7 1.3-1.2 1.8-1.6.2-.1.4-.1.5 0 .5.6 1.8 2 2.8 2.5.2.1.5 0 .6-.3 0-.5.1-1 .2-1.6v-1.9c0-.3.3-.6.6-.6.7-.1 1.5-.2 2.1-.2s1.4.1 2.1.2c.3 0 .5.3.5.6v2.9c0 .7 0 1.4.5 1.6.5.1 1.1-.5 1.9-1.5.3-.3 1-1.2 1.3-1.6.1-.1.3-.2.4 0 .5.4 1.1.9 1.8 1.6.2.2.3.4.5.6.2.3.2.7 0 .9l-1.4 1.5c-.4.4-.7.7-.7 1.4s1.2.4 1.8.4h2.1c.3 0 .6.1.7.4 0 .3.1.6.2.9v.3c0 .4-.3.7-.7.6-.6 0-2 0-2.4.2-.3 0-.4.4-.3.7l.8 1.4c-.4.6-1 1.2-1.4 1.7-1.2 1.4-1.3 2.5-1.3 2.5 0 .3 0-.1 1 .8.2.2.7 1.1 1.1 2 2.3-.7 4.2-.5 4.5-2.1-4 1.4-4.5 0-4.7-.9-.2-1 1.7-3.2 2.5-4.1l.1-.1-1.1-.9 2.3.4c.8.2.8 0 .9-1v-1.6" fill="#2b3647" fill-rule="evenodd"/><path d="m197.8 150.1c-.2-1.8.3-2.3 1.5-2.4 1.2 0 1.7.5 1.5 2.4 1-.4 1.8-.8 2.5-1.3-.2.9-.7 1.6-1.6 2-.8.5-1.5 1.6-2 3.4 0 .3-.2.5-.5.6-.2 0-.4-.3-.5-.6-.5-1.8-1.2-2.9-2-3.4-.9-.4-1.4-1.1-1.6-2 .7.5 1.5.9 2.5 1.3m-.5-3.7c-.3-.1-1-.5-2.6-1.7h-.2c0 .2 0 .5.1 1.4.1 0 .3.1.7.3.2.6.8 1.6 1.9.6.6-.5 0-.7 0-.7m4.6.1c.3-.1 1-.5 2.6-1.7h.2c0 .2 0 .5-.1 1.4-.1 0-.3.1-.7.3-.2.6-.8 1.6-1.9.6-.6-.5 0-.7 0-.7" fill="#2b3647" fill-rule="evenodd"/><path d="m201.8 180.7c.8.5 1.3-.6.5-1.6-1.1-1.4-1-1.7-.9-2.2 0-.6-.2-1-.6-.3-.1.3.5.7 0 1.6-.2.4-.2.9 0 1.4.2.4 0 .5.9 1.1m-6 .9c-.3.5-.6 1-1 1.4-.4.3.5 1.4.5 1.4.6-.1 1.2-.5 1.2-1.1 0-1.3.6-1.6 1-1.8 1.1-.4.9-.9.9-1.5 0-.5.6-.8.5-1.9-.1-1.4 1-2.2 1-2.4 0-.4-1.3.6-1.5.9-.6.7-.7 1.3-.7 2.1 0 .6-.2 1.1-.7 1.4s-.8.4-1.2 1.4m118.1-59.2v-.2c-.5-1.1-1.9-1.4-2.9-1.7-3.7-1-7.7-1.4-11.6-1.8-8.2-.9-16.5-.1-24.7.5-4.3.3-8.6.6-13 .9-3.1.3-6.1 1.1-9.1 1.9-7.1 1.8-14.3 3.6-21.1 6.4-1.9.8-3.9 1.6-5.4 3.1-2.3 2.4-4.1 5.3-5.9 8.1-.9 1.4-1.8 2.9-2.6 4.4-.7 1.2-1.2 2.6-2.1 3.7-.6.8-1.5 1-2.4 1.2-.4 0-.9.2-1.4.3.1 0-3.7 2.7-4.4-1.7-.7.5.6 1.2-1.2 2.6-.7.6-1.5 1-1.4 1.5 0 .5 2.9.3 3.5.8s-.2 1.3-.2 1.8c0 1.3 2.5-.8 2.1-1.4-.7-1.4 2.5-1.8 3.5-2 1.8-.4 2.7-1 3.5-2.5 1.9-3.3 6.5-12.3 10.1-16 1.8-1.9 8.5-4.2 15.3-6.2 6.8-1.9 13.7-3.6 16-4.1 1.9-.5 7.8-.7 14.7-1.3l4.5-.3c.7 0 1.4-.1 2.1-.2.5 0 1.2-.3 1.7-.1.3.1.3.4 0 .6-.3.3-.8.4-1.2.5-.9.2-1.8.2-2.7.3-1.8.3-3.5.5-5.4.5s-3.8.4-5.7.9c-.2 0-.3 0-.4.2-.5.9-2.2.8-3 .9h-4.4c-.2 0-.4.3-.3.5 1 1.4-3.6 1.4-4.5 1.3-.3 0-.4.3-.2.5.9.8-3.1 1.4-3.5 1.5-.8.1-1.6.2-2.4.2 0 0-.2 0-.3.2-.6 1.3-2.5 1.3-3.7 1.4-.5 0-1 0-1.6.1-.2 0-.3.2-.3.4.2.8-2.9 1.1-3.4 1.2-.2 0-.4.2-.3.5.7 1.3-4.7 2.2-5.4 2.4-.3 0-.6.2-.9.3s-.2.4.1.4c1.2 0-.4 1-.7 1.1l-.9.3c-.5.2-.4.5.1.6.2 0 .6 0 .7.2.2.3-.2.6-.4.8-.5.3-1 .6-1.5.8-.2 0-.7.2-.8.4 0 .2.2.2.3.3.2.2.3.4.3.7 0 .6-1 .7-1.4.9-.3.1-.6.2-.8.4-.5.4.3.4.6.5.9.3.2 1.1-.3 1.4s-1.2.6-1.8.9c-.2 0-.4.3-.2.5.3.4 1 .2 1.2.6.5 1.2-2.6 1.8-3.2 1.9-.3 0-.3.5 0 .6.5.2 1 .4 1.4.6.2.1.4.3.5.5.2.7-1.2.8-1.6.9h-1.2c-.4 0-1 .1-.5.6.3.3.7.4.9.7.6.6.4 1.2-.4 1.4s-1.6.1-2.4 0c-.3 0-.4.3-.2.5.3.3.5.7.6 1.1.4 1.2-2.7.6-3.2.5h-.4c-.1 0-.4.2-.3.4 0 .2.7 2.5-.5 1.5-.5-.4-1.1-.9-1.7-1.1-.2 0-.5.2-.4.4.3.7.7 1.6-.5 1.2-.5-.2-1.4-.4-1.9 0-.1.1-.3.3 0 .5.1.1.4 0 .6 0 .5 0 1 .2 1.5.3.3 0 .6.2.9 0 .3-.1.4-.4.6-.6.6-.4 1.6.4 2.1.7l1.2.6c.6.2 1.6.3 1.9.9.3.5-.1 1.1-.7 1.2-.9.2-1.6.3-2.5 0s-1.7-1-2.3-1.7c-.2-.3-.4.1-.2.4.3.4.6.7 1 1s.8.6 1.1.9c.6.7.7 1.6.8 2.5 0 .8.1 1.9-.6 2.3-1 .6-1.6-2.4-1.8-3-.3-1-.6-.8-.6-.5v2.2c-.1.9-.6 1.3-1.4.6-.5-.5-.9-1.7-.9-2.4 0-.4-.4 0-.4.3 0 .4 0 .8.2 1.1 0 .3.3.6.4.9 0 .4-.3.8-.4 1.2-.2.9-.2 1.9.2 2.8.1.3.3.6.4.9.7 1.8.9 3.8 1.4 5.6.3 1.2.6 2.3 1 3.5.4 1.3 1 2.5 1 3.9v.9c0 .3-.3.5-.7.3-.9-.3-1.4-1-1.7-1.9-.4-.9-.8-1.9-1-2.9s-.2-2-.3-3c-.2-1.4-.3-2.8-.7-4.1-.4-1.5-.3-2.3-.1-3.8.1-1 .3-2.3 0-2.4-.2 0-.3.2-.5 1-.2.7-1.2 3.9-.6 5.6s.5 3.1.3 3.8c-.1.5 0 1.3 0 2.4.1 2-.1 2.3.2 3.6.3.9 1.7 2.7 1.7 1.9 0-.4 0-.8-.2-1.1 0 0 0 .2.1.3.3.5.7 1 1.2 1.4.9.7 2.3.9 3 0 .7 1.1 1.4 2 2.7 2.4.4.1 1 0 1.5-.1.7-.3.6-.5 1.2 0 1.1.8 2.6 1.6 4 1.2 1-.3 1.2-1.2 1.1-2.1.6.3 1.2.6 1.8.4 1-.3 1.3.3 2.2.4 1.7.2 2.1-1.3 2.1-2.6 1 .6 2.3 1.1 3.3.4.9-.7.9-2.3.8-3.4 1.2.5 2.5.8 3.8.2 1.2-.5 1.1-2.4.9-3.5 1.4.2 2.8 0 3.6-1.3.6-1 .3-2.4-.1-3.5 1.4.3 2.9 0 4.2-.8 1.1-.7.7-2.2.2-3.2.4-.2.8-.4 1.1-.9.2-.2.2-.5.3-.7 0-.3.9-.4 1.1-.4 1.4-.4 1.8-1.6 1.6-2.9 2.5-.2 5.5-.5 6-3.3 2-.1 4.4-.2 5.2-2.3.2-.5 2.8-.6 3.3-.8.8-.3 1.2-1 1.4-1.8 1.4 0 2.8-.3 4.1-.9 1.2-.7 1.2-2 1-3.2 1.3-.4 2.5-.9 2.5-2.3 1.8 0 4.9-.7 4.3-2.8 2.1 0 4.3-.2 6.1-1.2 1.5-.9 1.5-2.4.5-3.5 2.3-.4 6.5-1.1 4.9-4 .8-.4 1.3-1 1.6-1.9 0-.3 1-.2 1.5-.3.6 0 1.2-.2 1.8-.4 1.6-.5 3.8-2.1 3.4-3.9 1.3-.3 2.5-1.1 2.4-2.5 2.2-.3 7-1.5 6.2-4.4 1.7-.4 4-1 3.7-3.1m-31.5-1.8c.1-.2.4-.3.6-.3.5-.1.9 0 1.4 0 1 0 1.9 0 2.9-.1 1.7 0 3.4-.1 5.1-.1s3.2 0 4.4.2c1.2 0 2.5.2 3.7.4.7 0 1.4.2 2 .2h1c.2 0 1 .2.4.3h-10.5c-2.1 0-4.2 0-6.3.2-1.1 0-2.1 0-3.2.1-.4 0-2.3.2-1.7-.7m-32.7 8c.7-.2 1.4-.2 2-.3.6 0 1.2-.2 1.7-.4.7-.3 1.2-.9 1.8-1.2s1.3-.2 1.9-.3c.6 0 1.2-.2 1.7-.5.4-.3.7-.7 1.2-1 .5-.2 1.1-.1 1.6-.1 1.3 0 3 .2 4.2-.4.3-.1.5-.4.7-.5.2-.2.5-.3.8-.3.7-.2 1.4-.3 2.2-.4.5 0 1.1-.2.9.5-.4 1.3-1.4 1.9-2.6 2.1-1 .2-2.5.2-3.3 1-1 1-2 2.1-3.4 2.2-2.9.6-5.7.8-8.7.6h-2.4c-.3 0-.7 0-.9-.1-.6-.3.4-.7.6-.7m-4.9 1.5c1 0 2-.1 3-.2 1.6-.2 3.3 0 4.9 0 1.6.1 3.2 0 4.8 0 .8 0 1.5-.2 2.3-.3.2 0 .6-.1.8 0 .3.2 0 .6 0 .9s0 .6-.3.9c-.4.5-1 .7-1.6.8-.8.1-1.6 0-2.4 0h-1.1c-1.2 0-2.4.1-3.6.2-.7 0-1.3.2-2 .2-1 .1-2.1.3-3.1.4-.6 0-1.8.2-2-.7 0-.3 0-.6-.4-.8-.3-.2-.8-.3-.8-.8 0-.6.9-.6 1.3-.6m-15.4 33.3c-.7 0-1.4-.3-2.1-.5l-1.5-.6c-.4-.2-.9-.4-1.3-.7-.6-.3-1.3-.5-1.8-.9-.7-.6-.1-1.3.6-1.5.5-.2 1.2-.7 1.7-.3.6.4 1.2.7 1.9 1 1.4.5 2.8.7 4.2.7.9 0 2.1.1 2 1.4-.2 1.8-2.6 1.6-3.9 1.5m.1 3.5c-.6.2-1.5-.3-2-.6-.7-.4-1.2-1.1-1.4-1.8 0-.3-.4-1.1-.2-1.4.2-.2.5 0 .7 0 .7.2 1.5.3 2.1.7.6.3.8 1 1 1.6.1.5.5 1.3-.2 1.5m.7-7c-.8 0-1.6-.2-2.4-.5-.6-.2-1.1-.5-1.7-.8s-1.4-.8-.9-1.6c.9-1.2 2.5-.7 3.7-.3 1.8.5 3.5 1 5.3 1.2.5 0 1.1.1 1.6.1s1.2 0 1.6.4c.3.5-.2 1.2-.6 1.4-.7.3-1.6.3-2.4.3h-4.3m6.7-2.7c-1.5 0-3.1-.2-4.6-.5-.9-.2-1.9-.4-2.8-.7-.6-.2-2.8-.8-1.8-1.8.5-.4 1.3-.6 1.9-.4.7.2 1.3.5 2 .7 1.4.4 2.9.6 4.3.7h1.4c.5 0 1.4-.4 1.8 0 .3.3.1.9 0 1.2-.4.7-1.5.8-2.2.9m.9-2.7h-2.6c-.6 0-1.2-.2-1.8-.3-.8-.1-1.5-.3-2.2-.5s-1.1-.4-1.4-1.1c-.2-.4-.3-.9 0-1.2 0 0 .1 0 .2-.1.4-.1.8 0 1.2.2.5.1.9.2 1.4.3 1 .2 1.9.4 2.9.5s2 .2 3 .2h1.6c.5 0 1.5-.3 1.4.5 0 .4-.5.7-.8.9-.9.5-2 .7-3 .8m1.9-3c-1.6 0-3.3 0-4.9-.3-.4 0-.8-.1-1.2-.2-.3 0-.7 0-.9-.3s0-.7 0-.9c0-.4 0-.7-.1-1.1-.2-.8.4-1 1.2-1h2.1c1.4 0 2.7.3 4.1.3h1.9c.6 0 1.2 0 1.7.2.6.3.9 1 .7 1.7-.2.8-.9.9-1.6 1.2-.9.3-1.9.3-2.8.3m3.7-3.9c-2.4.3-4.8 0-7.2-.2-.5 0-1.7 0-1.5-.7 0-.3.2-.5.3-.9 0-.4 0-.8.2-1.1.2-.4.4-.7.8-.8.6-.2 1.4 0 2 0h5.4c.8 0 1.9-.1 2.4.6.4.5.6 1.3.3 1.9-.5.9-1.7 1.1-2.6 1.2m1-4.4h-7.1c-.3 0-.6 0-.8-.3v-.7c0-.4-.4-.8-.2-1.3.4-.9 1.3-.7 2.1-.6h1.6c1 0 2.1 0 3.1.1 2.1 0 4.1 0 6.2-.2.5 0 1-.1 1.6-.1h1.4c1 .1 0 .9-.4 1.2-2.1 1.5-4.8 1.5-7.3 1.8m7.4-4.1c-1.1.4-2.4.7-3.5.8-1.3.1-2.6.1-3.8.2-1.7 0-3.4 0-5-.1-.4 0-1.3 0-1.3-.7 0-.4 1.1-.6 1.4-.8.4-.2.7-.6 1.1-.9 1-.6 2-.5 3.1-.4h3.8c1.1 0 2.3-.2 3.4-.3.6 0 4.1-.9 3.8.5-.1.6-.8 1-1.3 1.2-.5.3-1 .5-1.6.7m1.9-3.5c-1.9.2-3.9.5-5.8.6-2 .2-3.9.1-5.9 0-.7 0-1.4-.3-.9-1.1.4-.6 1.1-1 1.7-1.4.3-.2.8-.5 1.2-.6h1.4c1 0 1.9-.1 2.9-.2 1.9-.2 3.8-.5 5.7-.6h1.5c.8 0 1.6 0 2 .8.6 1.1 0 2-1.2 2.2-.8.1-1.6.3-2.4.4m-14.4-4.2.1-.1c.8-.6 1.8-.8 2.7-.5.5.1 1.7.5 1.3 1.2-.2.4-.8.4-1.1.5-.6.2-1.2.2-1.8.2-.5 0-1.4 0-1.7-.4-.2-.4.1-.7.4-.9m-5.7 3s0-.1.1-.2c.5-.6 1.3-.6 2-.8.6-.1 1.1-.2 1.7-.3h2c.3 0 1.4.2 1.3.7-.2.9-2.1.9-2.7.9h-3.5c-.4 0-1 .1-.7-.4m-2.3 3.2c.4-.3.5-.6.6-1.1 0-.1 0-.3.1-.4.2-.3.5-.6.9-.6h4.8c.5 0 2.3 0 2 .9-.2.8-1.3 1.2-2 1.5-1.2.5-2.6.6-3.9.6h-2.1c-.5 0-1.1-.3-.5-.9m-1.3 2.2c.1-.2.3-.5.5-.7 0 0 .2-.1.3-.2.3 0 .8.1 1.2.1h1.9c.5 0 1.3-.2 1.5.4 0 .4 0 .7-.4.9-.7.4-1.7.5-2.6.5h-1.6c-.4 0-.9 0-1.3-.2-.5-.4.3-.7.5-1m-2.4 3.6c.4-.3.9-.6 1.1-1 .1-.2.2-.5.4-.7.4-.3 1 0 1.4 0h1.6c.8 0 1.6-.1 2.3.2.4.2.8.7.4 1.2-.4.7-1.3.9-2 1-1.5.3-3 .5-4.6.3-.3 0-.7 0-1.1-.2-.5-.3 0-.6.3-.8m-.9 2.8c.2-.2.3-.5.5-.7s.4-.4.7-.5c.5-.1 1 0 1.6 0h2.7c.5 0 1.1 0 1.4.3.6.5 0 1.1-.5 1.4-.9.6-2.1.5-3.1.3-.5 0-.9-.1-1.4 0h-1.4c-.2 0-.5 0-.7-.2s0-.4.2-.6m0 1.5h1.6c.7 0 1.5 0 2.2.3s1.2 1.2 1 2c0 .5-.9.5-1.3.5-.5 0-.8 0-1.2-.4-.5-.3-1-.7-1.4-1-.3-.3-.6-.5-1-.7s-.2-.6.2-.7m-3.1 2.5v-.1c.2-.3.6-.2.9-.3.4 0 .7-.2 1.1-.4.4-.3.6-.5 1-.2.3.2.5.4.7.6.9 1.1-1.4.8-1.8.7-.3 0-1-.3-1.2-.1-.3.1 0 .4.2.5.7.3 1.4.4 2.1.6.4 0 2.6.4 2 1.3-.8.9-3 .6-4 .4h-.3c-.6-.1-.8-.3-.5-.9.2-.5.2-.8 0-1.3-.1-.2-.2-.4-.2-.6m-2.7 4.1c.2-.4 0-.8.2-1.2.5-.4 1.2-.2 1.7 0h.2c.6.3 3.2.8 2.7 1.9-.4.8-2.2.7-2.9.7-.6 0-1.2-.1-1.7-.3-.2 0-.5-.1-.5-.4 0-.2.2-.4.3-.6m-1.1 3.6c-.7-.2-1.6-.4-2.1-1-.3-.4-.5-1.4-.1-1.8.3-.3 1 0 1.4 0 .8 0 1.4.4 2.1.7.6.2 1.3.3 1.9.4.4 0 .9.5.9 1 .3 1.7-3.3 1-4 .8m-.1 2.7c.4-.2.8-.2 1.2-.4s.7-.3 1.1 0c.5.3 1 .6 1.4 1 .5.4.7.9 1.1 1.5.6 1 1.3 2.4-.5 2-.9-.2-1.7-.5-2.5-1-.7-.4-1.6-.9-2.1-1.6-.4-.5-.3-1.2.4-1.5m4.2 6.8c-.4.3-1.2 0-1.5-.2-.6-.3-1-.7-1.5-1.2-.5-.4-.9-1-1.2-1.5-.2-.2-.5-.6-.4-.9s.4-.2.6-.1c.5.2.8.5 1.3.8.4.2.9.5 1.4.6.3 0 .5.2.7.4s.3.3.4.5c.2.4.5 1.2.1 1.6m-6.1-1.6c0-.3 0-.5.1-.8 0-.4.2-.9.7-.8.4 0 .7.8.8 1.1.3.7.6 1.4.8 2.2.1.6.3 2-.8 1.5-.7-.3-1.2-1.1-1.5-1.8-.2-.5-.3-.9-.2-1.4m-4.8 3.5c-.4-.6-.6-1.3-.6-2.1 0-.4 0-.9.2-1.2.5-.7 1 .1 1.5 0 .4 0 .6-.4 1-.5.5 0 .6.4.8.7.4.4 1.1-.2 1.3.6.1.7.1 1.6 0 2.3 0 .5-.2.9-.7.6-1-.5-1.1-1.8-1.2-2.8 0-.4-.4-.2-.4.1-.1.8-.3 1.6-.6 2.3-.4 1.1-.8.8-1.4 0m8.5 15.8c-.2.5-.8.8-1.3.7h-.2c-.7-.1-1.2-.6-1.6-1.2-.3-.5-.6-.9-.9-1.4-1.3-2.2-2-4.6-2.6-7-.3-.9-.5-1.8-.7-2.7-.2-.7-.6-1.5-.2-2.2.1-.2.4-.6.7-.7.3-.2.7-.1 1 .1s.3.8.4 1.2c.3 1 .6 1.9 1 2.8.7 1.9 1.5 3.7 2.3 5.5.4.9.8 1.7 1.2 2.6.2.4.4.9.6 1.3.1.3.5.9.4 1.2m4.3 1.5c-.1.2-.3.2-.6.2-.5 0-1-.4-1.4-.6-.7-.3-1.1-.7-1.5-1.1-.3-.3-.5-.6-.5-.6-.2-.4-.4-.9-.6-1.3-.2-.5-.4-.9-.6-1.4l-1.2-2.7c-.8-1.8-1.6-3.7-2.2-5.5l-.6-1.8c0-.3-.3-.7-.2-1s.4-.4.7-.4.6-.3.9-.3c.7 0 .9 1.1 1.1 1.6.8 1.8 1.6 3.6 2.5 5.4.5 1.1 1.1 2.1 1.7 3.1l.9 1.5c.1.3.3.5.5.8.4.6.6 1.2.9 1.9.1.5.6 1.8.3 2.3m2.9-1.9h-.2c-.5 0-1-.3-1.3-.6-.5-.3-.9-.6-1.3-1-.4-.5-.6-1-1-1.5l-1.2-2.1c-.8-1.4-1.6-2.8-2.3-4.2l-1.2-2.4-.9-2.1c-.2-.4-.8-1-.4-1.4.3-.4.8.3 1.3.2.3 0 .8 0 1 .2.3.3.4.9.6 1.3l1.2 2.7c.9 1.8 1.8 3.5 2.8 5.2.5.9 1.1 1.9 1.7 2.8.3.5.6.9.9 1.4.2.2.3.5.5.7.3.4.4 1-.1 1.1m2.9.1c-.4.3-1.2-.3-1.5-.6-.4-.4-.8-.9-1.1-1.4-.7-1.2-1.5-2.3-2.2-3.5-1.4-2.4-2.8-4.8-3.9-7.3-.4-.8-.7-1.6-1.1-2.3-.3-.5-1.1-1.6-.7-2.2s1.5.2 1.8.5c.6.5.8 1.3 1.2 2 .5.9 1 1.8 1.5 2.6.2.3.4.6.5.9.6 1 1.3 2 2 3.1.7 1 1.4 2.1 2.1 3.1.4.5.7 1 1.1 1.5.6.8.7 1.5.7 2.5s0 1-.3 1.2m4-2.1c-.6.6-1.8-.4-2.3-.7-1.8-1.1-2.8-2.8-3.9-4.4-1.4-2-2.7-4.1-4-6.3-.3-.5-.6-1.1-.9-1.6-.4-.6-1-1.5-.6-2.3.2-.3.5-.5.6-.9 0-.3.4-.6.7-.3.4.4.7 1.1 1 1.5.7 1 1.4 2 2.2 3 1.1 1.5 2.3 2.8 3.5 4.2 1 1.1 2.2 2 3.2 3.1.7.8 1 1.7 1.1 2.8 0 .6 0 1.4-.4 1.9m4.6-3.3c-.2.1-.4.2-.7.2-.9 0-1.8-.4-2.6-.8-.7-.4-1.3-.8-1.9-1.4-.3-.3-.6-.6-1-.9l-1.8-1.8c-1.2-1.3-2.3-2.6-3.4-3.9-.6-.8-1.2-1.6-1.7-2.3s-1-1.4-1.5-2.2c-.3-.5-.7-1.3.2-1.1.4 0 .6.4 1 .6.7.3 1.4.4 2 .7.5.3.9.8 1.3 1.2s.9.8 1.4 1.2c.8.6 1.5 1.3 2.3 1.9.5.4 1.1.8 1.6 1.3.9.7 1.7 1.4 2.6 2.1.4.4.9.7 1.4 1.1.6.5.9 1.2 1 2 .1.6.2 1.7-.3 2.2m3.4-3.7h-.6c-.7 0-1.4 0-2.1-.4-.9-.4-1.6-1.2-2.3-1.8-.9-.7-1.8-1.4-2.6-2.1 0 0-.1 0-.2-.1-1.5-1.2-3.1-2.4-4.6-3.7-.7-.6-1.5-1.4-1.6-2.4 0-.5-.3-1.6.1-2 .3-.3.6.2.9.4.3.3.7.5 1.1.7 1 .7 2 1.3 3 1.9 2 1.2 3.9 2.2 5.9 3.3.8.4 1.7.7 2.3 1.3.8.7 1.2 1.8 1.4 2.8.1.8.1 1.7-.8 2.1m5.1-5.2s-.2 0-.3.1c-.9.4-1.9.6-2.9.3-2.1-.4-4-1.7-5.9-2.6-.5-.3-1-.6-1.6-.8-1.9-1.1-3.8-2.2-5.6-3.3-.4-.2-1.4-.7-1.3-1.3 0-.4.6-.5.9-.6.4-.1.9-.3 1.3-.1.6.3 1.2.7 1.9 1 1.3.6 2.6 1.1 3.9 1.7 2.6 1.1 5.3 2.4 8.1 3 .4 0 1 .6 1.2.9.3.3.5.8.5 1.2 0 .3 0 .5-.3.6m1.2-3.8c0 .2-.2.3-.4.4-.9.6-2.6 0-3.4-.3-1.4-.4-2.7-.9-4-1.5-.7-.3-1.5-.6-2.2-1l-3-1.2c-1-.4-2.4-.9-3.1-1.8-.2-.3-.3-.4-.3-.7s-.2-.5.1-.8c.4-.3.9 0 1.4.1.8.3 1.6.6 2.3.9 1.6.6 3.2 1.3 4.8 1.9 1.3.5 2.7 1.1 4 1.6.7.3 1.4.5 2 .7s1.3.2 1.8.6c.3.3.2.7 0 1m2.7-2c-1 1.2-3 .4-4.2 0-1.3-.4-2.5-.9-3.7-1.4-.7-.3-1.4-.6-2.1-.8-2-.8-4-1.5-5.9-2.4-.3-.1-.8-.3-.8-.7 0-.5 1-.9 1.3-1.3.7-.9 1.7-.1 2.5.1l5.7 2.1c1.4.5 2.7 1 4.1 1.4 1.2.4 3.3.7 3.2 2.4 0 .2 0 .4-.2.6m5.9-3.8-.2.2c-.8.7-2.1.8-3.1.9-1.1.1-2.3.1-3.3-.2-1.2-.4-2.3-.8-3.5-1.1-2.3-.8-4.6-1.7-6.9-2.5-.9-.3-1.7-.7-2.5-1-.3-.1-.8-.1-.8-.6 0-.3.4-.6.6-.7.3-.3.4-.7.7-1 .7-.7 1.9 0 2.5.3.9.3 1.9.6 2.9 1 1.9.6 3.8 1.2 5.8 1.7 1.5.4 3 .7 4.5 1 .8.2 1.5.3 2.3.4.4 0 1 0 1.3.4.4.4.2 1.1-.2 1.5m5.2-3.3c-.5.4-1.1.6-1.8.6-.8 0-1.8.2-2.6.2-.9 0-1.8-.2-2.6-.4-.9-.2-1.7-.3-2.6-.5l-5.1-1.2c-1.9-.5-3.9-1.1-5.8-1.8-.5-.2-1-.3-1.4-.5-.4-.1-.9-.2-1.2-.6-.5-.6.5-1.3 1-1.4.5-.2.7 0 1.2 0 1 .3 2 .5 3 .7 2 .5 4 1 6.1 1.4 2.4.5 4.8 1 7.1 1.5.9.2 1.9.4 2.8.5.5 0 .9.2 1.4.2.2 0 .7 0 .9.2.2.4 0 .7-.3 1m4.4-2.1c-.6.5-1.7.4-2.4.5-2.1.2-4.1-.2-6.1-.6l-1.8-.3c-3.3-.6-6.6-1.4-9.8-2.2-1.4-.3-2.7-.6-4.1-1-.4-.1-1.2-.2-1.5-.5-.6-.6.5-1.2 1.1-1.3.9-.2 1.9 0 2.8.3 2 .5 4.1.8 6.1 1.2s4.1.7 6.1 1.1c2 .3 4.1.5 6.1.9 1.1.2 2.2.2 3.2.5.3 0 .6.2.6.6s-.1.7-.3.9m5.5-3.1c-.5.8-2.1.9-2.8 1-1.5.2-3 0-4.5-.3-1-.2-2-.3-3-.5-2.4-.3-4.9-.7-7.3-1.1-2.1-.4-4.1-.7-6.2-1.1-1-.2-2.1-.4-3.1-.6-.5 0-1-.2-1.5-.3-.4 0-.9 0-1.2-.4-.2-.3-.2-.8 0-1 .5-.5 1-.2 1.6-.1.5 0 1 .2 1.6.3 1 .2 2.1.4 3.1.5 2.1.4 4.2.7 6.2 1 3.3.5 6.6 1 9.9 1.4 2 .2 3.9.7 5.9.5.4 0 .5-.5.1-.5-1.9.2-3.8-.3-5.8-.6-3.3-.4-6.7-.9-10-1.5l-3.6-.6c-1.8-.3-3.7-.6-5.5-1-.8-.2-1.6-.4-2.4-.4-.3 0-1.2 0-.8-.6.4-.5 1.2-.5 1.8-.5 1.8 0 3.7.4 5.4.7 1.9.3 3.7.6 5.6 1 1 .2 2.1.4 3.1.5 2 .3 4.1.7 6.1.9 1 .1 2.1.3 3.1.4.5 0 1 .1 1.6.2.7 0 1.3 0 1.9.4.5.3.6 1.1.6 1.6s0 .3-.1.5m2.5-3.5c-.3.4-1 .6-1.3.7-.9.2-1.7 0-2.6 0-1-.1-1.9-.2-2.9-.3-1.9-.2-3.8-.5-5.8-.8-1.1-.2-2.2-.3-3.3-.5-1.4-.2-2.8-.5-4.2-.7-2.1-.4-4.1-.7-6.2-1-1-.1-2.1-.2-3.1-.4-.3 0-.6-.3-.5-.6 0-.5.6-.5 1-.6s.9 0 1.4 0c.8 0 1.6.2 2.4.3 1.5.2 3 .3 4.5.5 1.9.2 3.9.3 5.8.5 2 .2 4 .3 6 .5s4 .4 6 .8c.6.1 1.2.1 1.8.3.4.1.8.4 1 .8.2.3.1.5 0 .7m4.4-2.5c-.2.2-.7.4-.9.5-.9.3-1.8.3-2.7.2s-1.8-.4-2.8-.6c-.9-.2-1.9-.3-2.8-.5-1.9-.3-3.8-.4-5.8-.6-1.1 0-2.1-.2-3.2-.2-3.2-.3-6.4-.5-9.6-.8-1-.1-2-.2-3-.4-.5 0-1-.2-1.5-.2-.4 0-1 0-1.4-.3-.5-.2-.3-.7 0-.9.7-.5 1.5-.6 2.3-.7 1.5-.2 2.9-.1 4.4 0 2.1.1 4.2.3 6.3.5.9 0 1.9.2 2.8.3 3.1.3 6.1.7 9.2 1 2.3.3 4.7.5 6.9 1 .5.1.9.3 1.3.6.2.2.7.4.7.8 0 .2 0 .3-.2.4m7.3-3.7c-.3.4-1 .7-1.5.9-1.2.4-3.1.6-4.7.6-2.4 0-4.7-.6-7-1-2.4-.4-4.8-.6-7.3-.8-1.4-.1-2.7-.3-4.1-.4h-.4c-2.1-.2-4.2-.4-6.3-.5-1.1 0-2.1-.1-3.2-.2h-1.6c-.4-.1-.1-.7 0-.9.3-.3.5-.7.8-1 .6-.7 1.6-.6 2.4-.5.9 0 1.8 0 2.8.1l10.5.6c2.3.2 4.6.3 6.9.5s4.6.3 6.9.5c1 0 2.1.1 3.1.4.6.1 2.6.7 2.6 1.6 0 .1 0 .3-.2.4m4.9-4.9c-.2.4-1 .6-1.4.8-1.3.4-2.6.6-3.9.8-1.9.3-3.8.2-5.7 0l-12.6-.9-10.5-.6c-1 0-2-.1-3.1-.2-.3 0-1.3.1-1.3-.3 0-.3.5-.7.7-.8 1-.9 2.2-1.1 3.5-1.2h7.3c3.4 0 6.9 0 10.3.1 4.1 0 8.2.2 12.3.6.9 0 1.8 0 2.7.3.5.1 1.3.5 1.6 1v.5m1.1-3c-.3.4-.9.6-1.4.8-.2 0-.4.1-.5.2-5-.7-10.3-.8-15.3-.9-3 0-6-.1-8.9-.1h-9.5c-.3 0-1 .1-1.1-.2-.2-.4.2-.5.5-.6.3-.2.3-.4.5-.6.4-.7 1.4-.9 2.2-1 1.1-.1 2.1 0 3.2 0h7c2.3 0 4.6 0 6.9.1 1.3 0 2.6 0 3.9.1 4.3.2 8.7.3 12.9 1.3v.4c0 .3-.1.6-.3.8m5.3-3c-1.1.7-2.7.9-3.9.9h-1.2c-4-.9-8.1-1.1-12.2-1.3-4.2-.2-8.4-.3-12.6-.3h-9.4c-.3 0-1.1.3-1.1-.3 0-.4.4-.7.7-.8 2.1-1.2 4.7-.9 7-.9 2.1 0 4.2 0 6.3-.1 4.2 0 8.4-.1 12.6 0h9.3c1 0 2 0 3 .1.6 0 1.4.2 2 .3.3 0 .9.1 1 .6 0 .8-1.1 1.3-1.6 1.6m4-4.1c-.2.6-1.3.9-1.8.9-1.9.3-3.9.2-5.8.2h-1.7c-3.4 0-6.7-.2-10.1-.2-4.2 0-8.4 0-12.6.1-2.2 0-4.4 0-6.7.1h-1.6c-.4 0-.9 0-1-.4-.2-.4.2-.8.5-1.1.6-.5 1.6-.7 2.4-.8 1.5-.3 3.1-.2 4.6-.2h31.5c.4 0 .9 0 1.3.2.4 0 1.2.3 1 .9m4.8-2.4c-.5.4-1.2.6-1.9.8-2.1.5-4.3.2-6.5.2h-32.3c-.7 0-1.8.2-2.4-.2-.7-.5.7-1.2 1-1.3.6-.2 1.2-.3 1.8-.5.8-.2 1.6-.6 2.4-.8 1-.3 2.1-.3 3.1-.3h3.2c2.1 0 4.2 0 6.3-.1h21.2c1 0 2 .1 2.9.2.6 0 1.5 0 1.9.6.5.6-.5 1.1-.9 1.5m4.5-4c-.2 0-.4.2-.5.2-.6.2-1.3.3-1.9.4-.9.2-1.8.3-2.7.3-.5 0-1.1.1-1.6.1s-1 0-1.5-.1c-4.2-.2-8.4-.2-12.6-.2s-8.4 0-12.6.2c-2.1 0-4.2.1-6.3.1-.8 0-1.3-.6-.6-1.2.4-.3.9-.6 1.3-.7 1-.3 2-.3 3.1-.4 1-.1 2.1-.4 3.1-.4 2-.1 4-.3 6-.4 2 0 4-.2 6-.2h3.4c3.5 0 7 0 10.4.1 1.3 0 2.7 0 4 .3.9.1 1.9.3 2.8.6.3.1.7.3.8.7s-.2.6-.5.7m-131.2 63.9c1-.5 1.9-1.2 2.7-2 .6-.6 1.1 0 1.9-.2.9-.2 1.7-.6 2.4-1.2h.1s1.5-1.2 1.5-1.9c0-1.7 0-2.8.6-4.2.3-.7-.1-1.9 0-2.7.2-2.1 2-.9 2.3-1.7.4-.8-.9-.7-1.3-1.8-.4-1.2 1.2-.6 1-1.6-.2-1.4-1.5-2.8-2-5.7-.3-1.7-.7-2.3-1.2-2.8-.6-.7-1.5-.6-2.3-.6-.9 0-1.7-.7-1.3-1.7.1-.3.3-.6.3-.9.1-.7-.4-.8-.4-.4-.3 1.7-2.6 2.4-4 2.1-.4 0-.9-.2-1.2-.5-.4-.6.4-.9.8-1.2.5-.3.9-.5 1.3-.8.2-.2.4-.3.7-.4.4-.1.5.1.8.2.6.2 1.1-.4 1.5-.7.2-.2.5-.4.7-.6 0 0 .8-.5.6-.6-.2 0-.2-.1-.4-.1-.7 0-1 .8-1.8.9-.4 0-.7-.3-.7-.7 0-.3.6-1.2-.1-1.1-.8.1-1.7.3-2.5.3-1.8 0-.8-1.4-.4-1.9.1-.2 0-.5-.2-.5h-2.4c-.6-.1-1-.4-.7-1 .1-.2.3-.4.5-.6s.6-.3.8-.6c.1-.2 0-.5-.2-.5-.8 0-1.7-.2-2.5-.4-.6-.2-.9-.5-.4-1 .2-.2.5-.3.7-.4.3-.1.6-.2.8-.4s.3-.5 0-.6c-.6-.1-1.1-.3-1.6-.5s-1-.4-1.4-.7c-.3-.3-.3-.6 0-.9.2-.2 1.6-.5.7-1-.7-.4-2.1-.7-2.5-1.5-.5-.8 1.6-.8 1.1-1.4-.2-.2-.6-.2-.9-.3-.6-.2-1.8-.6-1.2-1.4.1-.2.8-.3.8-.4 0-.3-.7-.3-.9-.4-.5-.2-1-.4-1.4-.7-.5-.3-1.1-.9-.3-1.2h.5c.3 0 .4-.5 0-.6-.6-.1-1.2-.4-1.7-.6-.2-.1-1.2-.7-.5-.9.3 0 .3-.6 0-.6-1.3 0-2.6 0-3.8-.4-.4-.1-.9-.2-1.3-.4-.3-.1-.8-.3-1-.6s0-.6.3-.7.2-.6-.1-.5c-.9 0-1.8 0-2.7-.2-.4-.1-.8-.3-1.2-.5-.1 0-.6-.3-.5-.5 0-.2.9-.3.5-.6-.2-.1-.4 0-.7-.1h-.8c-.6 0-1.2-.1-1.8-.3-.7-.2-1.5-.4-1.8-1.1-.2-.3-.8-.3-1.1-.3h-1.5c-.4 0-4.4-.7-3.5-1.5.2-.2 0-.5-.2-.5-.9 0-5.5 0-4.5-1.3.1-.2 0-.4-.3-.4h-2.9c-1.1 0-4 .3-4.6-.9-.2-.4-1.5-.5-1.8-.6-.5 0-1-.2-1.4-.3-.4 0-.9 0-1.2-.2-.4-.2-.3-.6 0-.8s.8-.1 1.2-.2c1-.1 2 0 3.1 0 .6 0 1.2.1 1.7.2 1.7.1 3.3.2 5 .4.4 0 .9.1 1.3.3 2.5.6 9.1 2.2 15.7 4.1 6.8 2 13.5 4.3 15.3 6.2 1.8 1.8 3.7 4.3 4.9 7.6.4 1.1 1.6 1.7 2.4 2.3.8.7 1.6 1.4 2.3 2.3.5.7.6 1.4 1.2 2s1 1.6 1.5 2.3 1.2 1.1 2 1.5c.5.2 2 .7 1.9 1.1s-.7.8-.7 1.1c0 .4.7.5.9 1s-1.4 1.1-.9 1.9c.2.3.6.7.4 1.1-.2.3-.9.7-.4 1.5.6 1 1.8 1 1.6.6-.1-.3-.6-1.5 0-2.5.4-.7.9-.9 2.3-1.8 1.5-.9 2.7-.1 3.8-.7s-1.7-.7-2.2-1.4c-.2-.2-.2-.4 0-.5.1-.2 0-.4-.2-.5-2.5-.6-3.4-2.3-3.4-2.3-.6.1-1.2 0-1.7-.2-2-.7-3.8-3.4-4.4-4.2-.8-1.1-1.7-2.2-2.7-3.1-.4-.3-.8-.6-1.1-.9-.8-.6-1.1-2-1.6-2.9-1.3-2.6-3.4-5.4-5.7-7.1-2-1.5-4.5-2.3-6.7-3.2-7.1-2.6-14.5-4.4-21.8-6.2-3.1-.8-6.2-1.1-9.4-1.3-4.4-.3-8.9-.7-13.3-1-4.7-.3-9.3-.6-14-.6-4.4 0-8.7.5-13 1.2-2.1.3-4.1.6-6.1 1.2-.7.2-1.5.5-2 1s-.5 1.2-.3 1.9c.5 1.3 2.3 1.7 3.6 2-.3 1 .4 1.8 1.2 2.3-1.1 3 2.8 3.9 5.3 4.2-.9 1.1-.8 2.5.3 3.5.8.8 2.6.8 3.7.9 0 1 .6 1.8 1.2 2.5.9.9 2.3 1.1 3.6 1.1-.1 1.6.9 2.2 2.4 2.7-.5 2.2 2.9 2.7 4.6 3-.3 1.6.9 2.3 2.5 2.6 1.1.2 2.6-.3 3.4.5.6.6 1.4.9 2.2 1.1-.7 1.5.3 2.7 1.8 3.2.5.2 1 .2 1.5.3.6.1 1.1.6 1.6 1 .9.6 2.1.7 3.1.7-.6 1.8 0 2.8 1.9 3.5 2.1.8 4.5.9 6.8 1-.2 3.3 4.3 3.5 6.9 3.7-.8 1.2-1.5 2.8-.1 3.8 1.2.8 3 .6 4.4.5 0 2.3 2.7 2.8 4.7 2.6-.4 2.1 1 3 3 3.2-.2 1.2-.5 2.8.2 3.8.6.9 1.9.9 2.8.8 0 1.2.2 2.5 1.1 3.4.8.8 2.2.7 3.2.4 0 2.6 1.9 4.1 4.4 3.2.5 2.4 3.1 1.9 5 1.1.7 2.8 3.3 2 5.2.7.5 1.2 1.6 1.7 3 1m7.5-21c.4-.4.5 0 .5.4.2 1.3.6 1.7.6 3.9 0 1.4-.2 1.8-.4 2.6-.2.9-.8 5.3-.9 5.8-.2.8-.5 3.2-1.3 3.7 0 0-.3.3-.7.5-.3.2-1.5.8-1.9.5-.3-.3 0-1.1 0-1.4.2-.8.5-1.7.7-2.5.2-.9.4-1.9.6-2.8.2-1.1.4-2.1.6-3.3.1-.9.3-2 .5-2.8.2-.7.4-1.1.8-1.7.3-.6.5-1.3.6-2.1 0-.3 0-.5.3-.8m-2.5-1.8c0-1 0-2.7 1.2-2.8h.4c.3 0 .5.3.5.6v.7c0 .2.1.4.1.6 0 .3-.2.5-.3.7-.3.6-.6 1.1-1.2 1.4-.3.2-.6.3-.8 0-.1-.4 0-.8 0-1.2m.3 2.2c.4 0 .8-.3 1.2-.3.3 0 .3.1.3.5 0 .8-.3 1.6-.6 2.2-.2.4-.7 1.2-.9.3-.2-.7-.2-1.6-.2-2.3 0-.4-.4-.3-.5 0l-.3.9c-.1.3-.3.6-.5.9s-1.3 1.9-1.7.9c-.3-.9 0-2.2.3-3 0-.3 0-1.2-.5-.2-.4.6-.7 1.2-1.2 1.7-.4.4-1.1.9-1.7.7-.7-.2-.5-.9-.3-1.3.2-.6.7-1 1.2-1.5.4-.3.9-1 1.4-1.2h.2c.5 0 .7.7 1.2.8.4 0 1.4-.8 1.8-.3.3.4 0 1.3.8 1.3m-3.3-4.6c.2-.7.4-1.6 1.2-1.9h.3c.3 0 .5.8.7 1 .3.3.5.6.5 1 0 .5-.2 1.1-.5 1.5-.3.5-.9 1.2-1.5 1.1-1.1-.2-.9-1.8-.7-2.6m-1.6-.5c.3-.3.5-1 1-1s.2.5.1.8l-.3 1.5c0 .3-.1.6-.2.8-.3.6-.8 1.1-1.3 1.5-.6.5-1.3 1-2.1 1.4-.6.3-1.2.5-1.9.7s-.8-.5-.8-1c0-.8.5-1 1.2-1.3.4-.1.7-.3 1-.5.6-.4 1.3-.8 1.8-1.3.6-.5 1.1-1.1 1.5-1.7m-.9-1.3c1 .2.3 1.2 0 1.7-.6.7-1.3 1.4-2.1 1.9-.9.6-1.9.9-2.9 1.2-.6.2-1.3.3-1.9.2s-.8-.8-.4-1.2c.2-.3.7-.3 1-.4.4-.2.8-.3 1.2-.5.9-.5 1.7-1 2.5-1.6.4-.3.8-.6 1.1-1 .5-.5.9-.3 1.5-.1m-13.5.5h-.8c-.4 0-.8 0-1.2-.2-.5-.3-.9-1.1-.5-1.6.3-.4.6-.4 1-.3.9 0 1.9 0 2.8-.1 1.9-.2 3.7-.8 5.4-1.6.5-.2.9-.4 1.3-.6.2-.1.4-.3.7-.3s.8-.1 1.1 0c.6.3.6 1.2.2 1.7-.5.6-1.3 1.1-2 1.5-1.5.8-3.2 1.2-4.8 1.4h-.2c-1 .1-2.1.2-3.1.2m1.7.9c0 .3 0 .5-.2.6-.5.6-2.3.6-2.8-.2 0-.2-.2-.7 0-.8s.5 0 .8 0c.6 0 1.2 0 1.9-.1.4 0 .3.2.3.5m-20.2-21.9c.4-.1.9-.1 1.3-.1 1.6 0 3.1.3 4.7.3h4.8c.4 0 .9 0 1.3-.1.9 0 2.2.4 2.6 1.3.1.2.2.5.2.8 0 .6-.7.7-1.2.7-.8 0-1.5.1-2.3.1h-4c-2.3-.3-4.6-.4-6.6-1.6-.3-.2-1.8-1.1-.9-1.4m-.3-1.4c-.5-.2-3.6-1.4-2.2-2.2.3-.2.5-.2.8-.3.8 0 1.6.1 2.3.2 2 .2 4 .4 6.1.4 1.2 0 2.3 0 3.5-.1.5 0 1.1-.2 1.6 0 .4.3.5.8.9 1 .6.4.8.8.5 1.5 0 .2-.3.3-.6.4-.5.2-1 .1-1.5.2-1.6.1-3.4.3-5 .1-.8 0-1.6-.2-2.5-.2-.8 0-1.5-.3-2.3-.5-.6-.1-1.1-.2-1.6-.4m6.6 5.2c.5-.2 1.1-.3 1.6-.3.9 0 1.8.1 2.6 0h1.8c.7 0 1.4 0 2.1-.1.4 0 .8-.2 1.2 0 .5.2 1 .7 1 1.3 0 .2 0 .5.1.7 0 .3.3.4.4.6.3.4 0 1-.5 1.1-.8.1-1.7.1-2.5.1-2.4.1-5 .5-7.2-.5-1.1-.5-2.4-2.1-.7-2.8m2.5 5.2c.2-.5.5-.8.9-1 .3-.1.6-.2.9-.2 1.2 0 2.4 0 3.7-.1.8 0 1.6 0 2.3-.1.4 0 1.6-.3 1.9 0 .2.2 0 .6 0 .8-.1.3-.2.7-.2 1.1 0 .3.1.6 0 .8-.2.3-.6.3-.9.4-.4 0-.9.1-1.4.2-.9.1-1.8.2-2.7.2s-1.8.1-2.7-.1c-.4 0-.9-.3-1.3-.5-.6-.3-.6-.9-.4-1.4m1.8 2.8s0-.2.2-.2c.2-.1.4 0 .6 0h1.4c1.9 0 3.8-.3 5.6-.7.6-.1 1.1-.2 1.7-.3.3 0 .6 0 .9-.1.4 0 .9-.1 1.1.2.3.5.4.8.8 1.2.3.2 1 .4 1 .9 0 .7-1.3.7-1.7.8-1.4.3-2.8.3-4.2.4-1.5 0-3.3.7-4.8 0-.7-.3-1.4-.5-2-1-.3-.2-.8-.9-.7-1.3m3 4.6c.2-.9 1.1-1.3 1.9-1.4.6-.1 1.2 0 1.7-.1 1.9-.1 3.8-.2 5.6-.6.3 0 .6-.1.9-.2.7-.2 1.3.3 1.6.9.5.8 0 1.3-.7 1.6-1 .4-2 .7-3 .9l-1.8.3c-1.4.2-2.7.1-4.1 0-.5 0-.8 0-1.2-.3-.5-.2-.8-.5-.7-1m7.3 4.7s.2-.1.3-.2c.7-.1 1.4-.1 2.1-.3.8-.2 1.6-.4 2.4-.7s1.5-.7 2.2-1.1c.3-.2.7-.5 1-.8.2-.2.4-.6.7-.6.2 0 .7 0 .9.2.6.3.3 1.1 0 1.5-.3.5-.8.8-1.2 1.1-.6.5-1.1.9-1.8 1.3-1.2.8-2.6 1.3-4.1 1.5-.7 0-1.5.1-2.1-.3-.5-.3-.9-1.3-.4-1.7m11.8-6.3c.4 0 1.3-.3 1.6 0 .4.6-.7 1.3-1.1 1.6-.6.4-1.2.7-1.9.8-.4 0-.8 0-1.2-.2-.5-.1-.9-.5-.8-1 0-.2.2-.3.4-.5.3-.3.5-.6.9-.8.6-.2 1.3 0 2 0m-3.9-2.6c.4 0 .8.2 1.2.3.3 0 .6 0 .9.2.4.3.2.8 0 1.2-.2.2-.3.4-.5.6-.7.5-1.7.8-2.6.7-.9 0-1.9-.2-2.4-1.1s.8-1.2 1.5-1.4c.7-.1 1.3-.6 2-.6m-1.6-2.6c.3 0 .8 0 1 .4s-.2.7-.2 1.1c0 .2 0 .4-.2.6 0 .1-.2.2-.3.4-.3.3-.7.3-1.1.4-.7.2-1.5.1-2.2 0-.5-.1-1.1-.4-1.5-.9-.5-.7.3-1 .8-1.2.5-.1.9-.2 1.4-.3.7-.2 1.5-.4 2.3-.4m-1.3-1.2c.1.7-.6.7-1.1.8-.7.2-1.5.3-2.2.5-.6.1-1.2.3-1.9.4-.5 0-1.8.3-2-.2-.2-.4.2-1.5.4-1.8.6-1 2.1-.5 3-.5h2.3c.3 0 .7-.1 1 0 .1 0 .3 0 .4.2s0 .5 0 .8m-.3-2.7c.9.6-.5 1-1 1-1.5.1-3.1.1-4.6-.1-.9-.1-1.6-.5-2.2-1.1-.2-.2-.4-.5-.2-.8s.7-.3 1-.3c1 0 2 0 3 .1h1.5c.4 0 .9-.2 1.2 0s.4.5.6.7.4.3.7.5m-1.4-2.9c.3.2.5.5.3.8-.2.4-.7.3-1.1.4-1 0-2.1 0-3.1-.2-1.6-.3-3 0-4.2-1.3-1.4-1.2 1-1.3 1.7-1.3 1 0 2 .4 3 .6.7 0 2-.3 2.7.3.3.2.5.5.8.8m-3.1-4.3c.3.1.4.4.5.6 0 0 0 .1.1.2.3.4.8.4.9.8.2.8-1 .9-1.5.9-.8 0-1.6-.2-2.4-.4-1.4-.3-3.1 0-4.3-1-.3-.2-.6-.5-.7-.8s0-.8.4-.8c.5 0 1 .2 1.5.3.6.1 1.3.2 2 .2.8 0 1.6 0 2.4-.1.4 0 .8-.1 1.1 0m-1.6-3c.4.5 0 1.1.6 1.5.2.2.6.3.4.6 0 .2-.4.3-.5.3-.4.1-.9.1-1.4.1-1.9 0-3.8 0-5.4-1.1-.5-.3-1.3-1.3-.4-1.7.6-.3 1.3-.2 2 0h2.3c.7 0 1.9-.4 2.4.3m-7.1-3.2c.5 0 .9.2 1.3.4s.7.5 1.2.6c.6.2 1.3.2 2 .2.4 0 .9 0 1.2.4.1.2.2.3.1.4 0 .3-.8.3-1 .3h-2.3c-1 0-2 0-2.8-.5-.3-.2-.6-.7-.7-1.2 0-.6.6-.6 1-.5m-1.5 1.3c.2.3.7.6.5 1-.4 1-2.3.8-3.1.8-2.8.1-5.6 0-8.3-.4-.8 0-1.6-.2-2.4-.3-.9-.1-3.5-.2-3.2-1.7.2-.9 1-1.6 1.9-1.7.8-.1 1.6.1 2.4.2 1.8.2 3.6.4 5.4.5h4.6c.6 0 1.4 0 1.9.3.4.3.2.7.4 1.1m-4.4-4.6c.4 0 1 .1 1.3.4.5.3.7.7 1.1 1.1.3.2 1.7.5 1.2 1.1-.2.2-.6.3-.9.3h-6.2c-1.1 0-2.2-.2-3.3-.3-1-.1-2.1-.3-3.1-.3-.5 0-.9.1-1.4.2-1.3.2-3.4.3-3.9-1.2-.1-.4-.4-1.1 0-1.4.3-.3.8-.1 1.1-.1h1.7c4.2.2 8.4 0 12.6.4m-23.8-6.7c.2-.4.9-.2 1.2 0 .5.2.9.1 1.3.5.2.2.4.3.7.4.5.2 1.1.3 1.7.3h3.1c.7 0 1.2 0 1.7.6.3.4.6.6 1.1.8s1.1.2 1.7.3c.3 0 .7.2 1 .3.2 0 .5.1.7.2.1 0 .2.1.3.2.2.1.3.3.5.4.5.3 1 .4 1.6.5.4.1.9.2 1.3.3h.9c.3 0 1 .3 1.2.6.2.4-.3.3-.6.3h-7.9c-1.2 0-2.5-.1-3.7-.2-1.6 0-3-1-4-2.3-.8-.9-2.3-.8-3-1.7-.2-.3-1.1-.9-.8-1.4m-11.3-3.4c.7 0 1.5.1 2.2.2 1.6.1 3.1.2 4.7.4h1.3c.2 0 .6 0 .7.1-.2.2-.4.3-.6.6-.2.4 0 .6-.6.6h-1.4c-1.3 0-2.5-.3-3.7-.5-.5 0-1-.1-1.6-.1s-2.2.2-2.3-.7c0-.8.9-.5 1.4-.5m-24.2.4c.1-.1.5 0 .7-.1.4 0 .7 0 1-.1.7 0 1.3-.2 2-.2 1.2-.1 2.4-.3 3.6-.4 1.3-.1 2.8-.2 4.4-.2s3.3 0 5 .1c.9 0 1.8 0 2.8.1.6 0 1.3 0 1.9.2.3.1.4.3.4.6 0 .6-.5.4-.9.4h-2.4c-1 0-2.1 0-3.1-.1-2.1 0-4.2-.1-6.3-.2h-8.8s-.3 0-.3-.1m-7.2 3.2c-.9-.3-1.3-.8-1.3-1.1 0-.2.6-.5 1.6-.8 1.8-.4 3.8-.5 5.6-.5 3.5-.2 6.9-.2 10.4-.1 4.6 0 9.2.2 13.8.5 1.4.4 3 .2 4.4.5 1.2.3 2.5.3 3.8.4.6 0 1.4 0 1.9.2.3.2 1 .5.4.6-.6.2-1.6 0-2.2 0h-13.8c-6.2.2-12.3.5-18.4 1-2 .1-4.1 0-6.1-.6m2.2 2 .2-.2c.5-.3 1.1-.4 1.7-.4.8-.1 1.6-.2 2.3-.3 5.2-.4 10.4-.7 15.7-.9 6.2-.2 12.3-.2 18.5 0 .4 0 .7 0 1 .1s.5.4.8.6c.2.2.6.5.7.8.2.7-.5.5-1 .5-1.3 0-2.5-.2-3.8-.3-4.9-.2-9.8-.3-14.7-.2-2.6 0-5.3.2-8 .4-2.6.2-5.3.4-7.9.6-.7 0-1.5.1-2.2.2-.4 0-.7 0-1.1.1-.5 0-.8 0-1.3-.2s-.9-.6-.9-.8m1.3 2.8v-.2c0-1 1.2-1.1 1.9-1.1.6 0 1.3-.1 1.9-.2l3.9-.3c2.6-.2 5.1-.4 7.7-.5 1.4 0 2.9-.1 4.3-.2 4.9-.2 9.8 0 14.8.1 1.4 0 2.7.2 4.1.3h2s1.1-.1 1.5.3c.2.2.3.4.5.6.3.3 2.1 1.3.7 1.2-1.5 0-3.1-.1-4.6-.2-3.1 0-6.2-.2-9.3-.3h-4c-3.8 0-7.7-.2-11.5 0-1.2 0-2.5.2-3.7.3l-6.3.3h-3.9m3.2 1.7c-.6 0-1-.2-1.2-.3-.3-.2-.6-.3-.9-.5-.3-.1-.2-.3 0-.4.5-.1 1.1 0 1.6 0h4.7c2.1 0 4.1-.2 6.2-.4 3.8-.3 7.6-.2 11.3-.1 6.2 0 12.4.3 18.6.5.5 0 1.4-.1 1.9.1.3.1.8.9.5 1.1-.3.3-1.5.1-1.9.1-1.4 0-2.8-.2-4.2-.3-3.1-.1-6.1-.1-9.2 0-2.8 0-5.5.2-8.3.3-4.8.3-9.7.2-14.5.2s-1.3 0-2.7-.1c-.7 0-1.4-.1-2-.2m4.6 4.4c-.6 0-1.2 0-1.8-.2s-1.1-.7-1.1-1.3c0-.5.5-.8 1.3-1.2.4-.2.8-.5 1.2-.6.5-.1.9-.1 1.4 0h9.9c1.2 0 2.4 0 3.7-.1 6.1-.3 12.2-.5 18.3-.3 1.6 0 3.2.2 4.8.3.6 0 1.2 0 1.6.4s.6.8 0 .9h-2.1c-1.5 0-3.1-.1-4.6-.2-3.9 0-7.8-.3-11.6 0-6.9.4-13.6.4-20.5.4-.4 0-.6.4-.2.4 6.8 0 13.7 0 20.5-.3 3.8-.2 7.6 0 11.4 0 2 0 3.9.2 5.9.2h2.9c.2 0 .8-.1 1 0 .3.2 0 .7 0 1-.1.4-.1.9-.6 1.1h-2.1c-1.5 0-3.1 0-4.6-.1-3.1 0-6.2-.2-9.3-.3h-1.5c-7.3 0-14.5.6-21.8.3s-1 0-2.1-.1m4.8 3.4c-.9 0-1.7-.3-2-.5-.2-.3-.5-.6-.7-.8-.1-.2-.4-.4-.4-.7 0-.9 1.1-.9 1.7-.8h9.5c3.5-.1 7.1-.3 10.6-.3 3.1 0 6.2.1 9.2.2s6.1.1 9.1.2c.6 0 1.1.3 1.6.5.4.1 1 .4 1 .9 0 .7-.3.9-.9.9h-6.9c-3.1 0-6.1 0-9.2-.1-6.1 0-12.2-.1-18.3.4-1.5.1-3 .3-4.6.2m2.6 2.3c-.3-.2-.5-.3-.5-.5v-.2c0-.9.7-1.1 1.4-1.2 1-.1 2.1-.2 3.1-.3 2.1-.2 4.2-.3 6.3-.3h7.2c6.1 0 12.2.3 18.3.1.8 0 1.9-.3 2.6.1.5.3 1.5.7 1.6 1.2s-.5.4-.8.4h-7.3c-3 0-6.1-.1-9.1 0-3.9.3-7.8.2-11.7.4-1.9.1-3.9.3-5.8.4-1.7.1-3.6.5-5.2-.3m4.5 3.4c-.8-.2-1.6-.4-2.3-.7-.4-.2-.5-.3-.5-.4 0-.5.9-.9 1.3-.9.8-.2 1.8-.1 2.6-.2 1.8-.1 3.5-.3 5.3-.4 4-.2 7.9-.1 11.9-.4 3.1-.2 6.2 0 9.3 0h5.8c.7 0 1.9-.3 2.5.3.3.3.4.7.7.9.1.1.6.4.5.7 0 .3-.8.2-1 .2-1.9 0-3.9.2-5.8.3-3.8.2-7.6 0-11.4 0-2.3 0-4.7 0-7 .2-2.1.1-4.2.3-6.3.5-1 .1-2.1.2-3.1.3h-1.1c-.5 0-.9 0-1.4-.2m5.4 2.6h-.8c-.8 0-1.7 0-2.4-.4-.3-.1-.4-.3-.4-.5s.2-.6.4-.9l.2-.2c5.3-.5 10.7-1.2 16.1-1 3.8 0 7.6.2 11.4 0 1.9 0 3.9-.2 5.8-.3.7 0 1.5 0 2.2-.1.5 0 .9-.2 1.4 0 .3 0 2.2.4 1.9 1.1-.1.3-2.1.2-2.4.2-.9 0-1.8.2-2.7.2-3.8.2-7.7.4-11.5.5-6.3.1-12.9 0-19.2 1.4m2.1.9c-.9-.8.8-.8 1.3-.9.6 0 1.3-.1 1.9-.2 1.3-.1 2.6-.2 3.8-.3 3.6-.3 7.1-.3 10.6-.4 3.7 0 7.4-.3 11-.5 1 0 1.9-.2 2.9-.3.6 0 1.2-.3 1.8 0 .5.1.9.7.9 1.1 0 .6-.5.5-1 .5-1.5.1-3.1.3-4.6.4-3.1.2-6.1.4-9.2.5-1.1 0-2.3.1-3.4.2-4 .2-8.3-.3-12.3.5h-1c-.9 0-2 0-2.7-.7m6.3 5.1c-.6-.5-1.1-.8-1.1-.8s-.5 0-1.2-.2c-.6-.1-1.3-.3-1.5-.5-.3-.2-.3-.4-.3-.6 0-.5.7-1.1 1.5-1.5.1 0 .2-.1.4-.2 4-.8 8.4-.3 12.5-.5 3.1-.2 6.1-.3 9.2-.5 1.5 0 3.1-.2 4.6-.3.8 0 1.5-.1 2.3-.2.6 0 1.5-.3 2.1-.2.5 0 1 .5 1.5.7.3 0 .8.2.9.6 0 .5-1.1.4-1.5.4-1.3.1-2.7.3-4 .4-2.7.3-5.3.6-8 .8-5.7.4-11.5.4-17.2.7-.4 0-.3.4 0 .4 5.7-.3 11.4-.2 17.2-.5 2.4-.1 4.7-.4 7.1-.7 1.2-.1 2.4-.3 3.6-.4.6 0 1.1-.1 1.7-.2.3 0 .9-.2 1.1 0 .2.3 0 .8 0 1.1s.5.6.4 1c-.2.4-1.1.3-1.5.4-1.3.1-2.6.3-3.9.4-2.6.2-5.3.4-7.9.6-2.3.1-4.7.3-7 .3-2.1 0-4.2-.1-6.3.2h-.9c-1.1 0-2.7-.2-3.5-.8m11 5.4h-.9c-.7 0-1.4 0-2.1-.2-1.4-.2-2.9-.5-4.1-1.1-.2 0-.2-.2-.2-.5 0-.5.2-1 .4-1.4.4-1 2.1-.8 2.9-.8h3.9c2.4 0 4.7-.2 7.1-.3 2.5-.2 5-.3 7.5-.6 1.2-.1 2.5-.2 3.7-.4.9-.1 2.5-.8 3.2.2.2.3.2.6.4.8s.4.3.6.5c1.4 1.1-1.4 1.2-2 1.2-1.5.2-3 .4-4.6.6-3 .4-6.1.9-9.1 1.3-2.1.3-4.4.7-6.5.6m4.2 3.5c-1.6 0-2.4-1.1-2.7-1.4-.1-.1-.2-.3-.2-.5s0-.6.2-.8c.2-.3.7-.4 1-.4.5 0 1-.1 1.6-.2 1-.1 2.1-.3 3.1-.4 2.1-.3 4.1-.6 6.2-.9 1.9-.3 3.8-.6 5.7-.8 1-.1 2.1-.3 3.1-.4.6 0 1.2-.3 1.8 0 .3.2.3.4.3.7 0 .9 0 1.5-.9 1.9-.7.4-1.6.5-2.4.7-2 .4-3.9.9-5.9 1.4-1.5.4-3 .6-4.4 1-.6.2-1.2.4-1.8.4h-2c-.9 0-1.8-.1-2.7-.2m6 4.4c-1.2 0-2.4 0-2.7-.3-.2-.1-.3-.3-.3-.5 0-.5.3-.9.6-1.3.2-.3.5-.6.7-.9.7-.9 2-1 3-1.3 1.2-.3 2.4-.5 3.7-.8 1.7-.4 3.5-.8 5.2-1.2.9-.2 1.7-.4 2.6-.6s1.7-.5 2.6 0c.6.3 1.3.9.5 1.5-.6.4-1.4.5-2.1.7-1.3.4-2.7.9-4 1.4-1.7.6-3.3 1.3-4.9 2.1-.8.4-1.5.9-2.3 1.2-.8.2-1.7.1-2.5.1m4.5 2.7h-.7c-1.2-.4-1.5-.9-1.5-1.3s.2-.6.4-.8c2.4-1.4 4.9-2.5 7.5-3.4 1.3-.5 2.7-.9 4-1.4.5-.2 1.3-.6 1.8-.6.4 0 1 .5 1.2.9.4 1-.5 1.6-1.2 2-.6.4-1.2.7-1.8 1-2.4 1.3-4.8 2.4-7.3 3.4-.5.1-1.6.4-2.4.4m3.6 2.9c-.6 0-1.3-.3-1.3-1.1v-.5c0-.4.2-.9.4-1.2s.7-.6 1.1-.7c.5-.2 1-.4 1.5-.7 1-.4 2-.9 3-1.4.9-.5 1.9-.9 2.8-1.4.5-.3.9-.6 1.4-.9s.8-.4 1.3-.1c.9.4 1.7.2 2.6 0 .4 0 1 0 1.2.5.4.5-.5.9-.9 1.1-1.2.8-2.4 1.6-3.6 2.3l-4.2 2.4c-.7.4-1.4.7-2.2 1.1-1 .5-2 .6-3 .5m4.4 4.4c-.3 0-1.2.3-1.8.3s-.9-.1-1-.5v-.9c0-.7 0-1.4.2-2.1.1-.6.7-.8 1.2-1 .7-.3 1.3-.7 2-1 1.3-.7 2.7-1.4 4-2.2 1.2-.7 2.4-1.5 3.6-2.2 1-.6 2.1-1.8 3.3-1.8.7 0 .6.2.8.8.1.6.7.9.2 1.4-.6.6-1.2 1.2-1.8 1.7-1.2 1.1-2.5 2.2-3.9 3.3-2.1 1.7-4.4 2.9-6.7 4.3m1.8 4.2c-.4 0-.7 0-1-.3-.5-.4-.6-1.4-.6-2.1 0-.4-.1-.9 0-1.2.2-.4.6-.6.9-.8.6-.4 1.2-.7 1.8-1.1 1.2-.7 2.4-1.5 3.5-2.3 1.7-1.3 3.4-2.7 5-4.2.6-.6 1-1.4 1.7-1.8.4-.3 1.2-.6 1.6-.2.5.6.3 1.5 0 2.1-.4.9-1.1 1.6-1.8 2.3-1 1.1-2 2.1-3 3.1-1.1 1.1-2.2 2.2-3.4 3.3-.5.5-1.1 1-1.6 1.6-.9.9-2 1.6-3.3 1.6m4.5 3.3c-.2 0-.4 0-.6-.1-.1 0-.8-.8-.9-1.2v-.8c0-1.3 2.4-3.5 3.7-4.7 1.3-1.3 2.3-2.4 3.6-3.8 1-1 2-2.1 2.9-3.2.4-.4.7-.9 1.2-1.2s1-.3 1.6-.5c.2 0 .8-.4 1-.1s-.6 1.4-.8 1.7c-.7 1.2-1.5 2.4-2.3 3.6-1.6 2.3-3.3 4.6-5 6.8-.4.5-.8 1-1.2 1.6-.7.9-1.9 1.9-3.1 1.9m6.1.7c-.7.4-1.7.8-2.4.8-.3 0-.5 0-.7-.2-.2 0-.2-.4-.2-.8 0-.8.3-1.5.8-2.1.6-.8 1.1-1.5 1.7-2.3 1.2-1.5 2.3-3.1 3.4-4.6l1.8-2.7c.4-.6.7-1.1 1.1-1.7.5-.8.6-1.6 1.6-1 .3.2.6.2.9.2.6 0 .7.2.4.7-.3.7-.7 1.3-1 2l-2.1 3.9c-1.2 2.2-2.4 4.3-3.7 6.4-.4.6-1 1.2-1.6 1.6m5.1.6c-.9.7-2 1.3-2.7 1.3-.2 0-.3 0-.4-.1-.4-.2-.5-1.1-.5-1.6 0-.6.5-1.4.8-1.9.4-.6.8-1.3 1.2-1.9.7-1.3 1.5-2.5 2.2-3.8l2.1-3.9.9-1.8c.2-.5.4-1.2.8-1.5.5-.3.6.3.9.6.4.4.7.6.6 1.2-.1.7-.3 1.5-.5 2.2-.4 1.4-.8 2.8-1.3 4.2-.4 1-.8 1.9-1.2 2.9-.2.5-.5 1-.7 1.5-.2.4-.5.8-.7 1.2-.3.6-.8 1.1-1.4 1.5m1.5.6c-.2-.7.2-1.7.5-2.3.5-1.1 1-2.1 1.5-3.2.3-.6.5-1.2.8-1.8.5-1.4 1-2.8 1.3-4.2.2-.7.4-1.4.5-2.1.1-.5.2-1 .5-1.5.3-.4.8-1.1 1.3-.6.6.5.6 1.3.5 2-.1 1-.3 1.9-.4 2.9-.2 1.5-1.2 6-1.4 6.6-.3.9-.8 2-1.5 2.7-.6.6-3.3 3.4-3.8 1.6" fill="#2b3647"/><g fill-rule="evenodd"><path d="m193.3 188.5c-1.6 0-2.7-.6-3.2-1.7l-.2-.5c-.4-.4-.7-.9-.7-1.5s0-.7.2-1c-.6-.4-1.1-1-1.2-1.7-.6-.6-1.5-1.8-1.4-3.3 0-1 .6-1.9 1.6-2.6.6-.4 1.5-.7 2.5-.7s4 .4 5.5 4c1.4 3.2.9 5.9 0 7.4-.5.9-1.3 1.5-2.1 1.6h-1.2m-.2-5.8h.8c0-.7-.3-1.3-.6-1.8-.2-.3-.5-.6-.8-.8 0 .6-.2 1.3-.5 1.9.2 0 .4.2.5.4l.2.2h.5" fill="#2b3647"/><path d="m188.9 185.5h-.2c-1.7-.5-2.4-1.5-2.6-2.3-.6-.7-1.3-2-1.1-3.6.1-.9.9-2.7 3-3.3.5-.1.9.3 1.2.7l.4.7-.4.7c-.3.5-.6 1.5.5 2.6l.4.4v.6c-.2.8 0 1.1 0 1.2.4.4.5.9.3 1.4s-.7.8-1.2.8h-.2z" fill="#2b3647"/><path d="m187.2 185.8h-.1c-1.2-.2-2-.9-2.3-1.6-.4-.4-1-1.1-1.1-2.2 0-.7 0-2.2 1.3-3.2.2-.2.7-.5.7-.5h.6l.4.4c.2.3.4.6.3 1 0 1 0 1.4.6 2.1l.4.3v.5c.2.5.3.9.4.9.3.4.4 1 .2 1.4-.2.5-.7.8-1.2.8z" fill="#2b3647"/><path d="m189.2 177.3c.8-.6 4.4-1.2 6.1 2.8 1.6 3.8.3 7-1 7.2-2.1.3-2.8-.3-3-.8 1.2-.3 1.2-.7 1.4-1.3-1.2.9-2.2.4-2.2-.2s.3-1.2.4-1.5h.2c.6.8.9.8 1 .9.7-.6 3 0 2.4 1.7 1.1-3.1.1-7.5-4.1-7.3v.1c.8 1.2.5 2.2.1 2.8-.2.4-.2 1 0 1.3 0 0 0 .2-.1.1-.7-.2-1.1-1-1-1.3-.5-.6-2.6-2.6-.3-4.3" fill="#fff"/><path d="m188 177.7c-.3.5-1.2 2.3.6 4.2-.1 1 0 1.9.5 2.3 0 0 0 .1 0 0-1.2-.3-1.7-.9-1.7-1.6-.6-.5-2.4-3.3.6-5" fill="#fff"/><path d="m185.7 179.7c0 1.1-.2 2 1.1 3.1.1.8.4 1.3.6 1.6v.1c-1.1-.2-1.4-.8-1.5-1-.4-.3-1.9-1.7-.2-3.8z" fill="#fff"/><path d="m204 188.5c-.8 0-1.5-.7-2.1-1.6-.9-1.5-1.3-4.2 0-7.4 1.5-3.6 4.4-4 5.5-4s2 .3 2.5.7c1 .7 1.5 1.6 1.6 2.6.1 1.5-.8 2.6-1.4 3.3-.1.7-.6 1.3-1.2 1.7 0 .3.2.7.2 1 0 .5-.2 1.1-.7 1.4s-.2.6-.2.6c-.5 1.1-1.5 1.7-3.2 1.7h-1.2m2.3-5.8.2-.2c.1-.2.3-.3.5-.4-.3-.6-.5-1.2-.5-1.9-.3.2-.6.4-.8.8-.3.5-.6 1.1-.6 1.8h1.3" fill="#2b3647"/><path d="m209.6 185.5h.2c1.7-.5 2.4-1.5 2.6-2.3.6-.7 1.3-2 1.1-3.6-.1-.9-.9-2.7-3-3.3-.5-.1-.9.3-1.2.7l-.4.7.4.7c.3.5.6 1.5-.5 2.6l-.4.4v.6c.2.8 0 1.1 0 1.2-.4.4-.5.9-.3 1.4s.7.8 1.2.8h.2z" fill="#2b3647"/><path d="m211.3 185.8h.1c1.2-.2 2-.9 2.3-1.6.4-.4 1-1.1 1.1-2.2 0-.7 0-2.2-1.3-3.2-.2-.2-.7-.5-.7-.5h-.6l-.4.4c-.2.3-.4.6-.3 1 0 1 0 1.4-.6 2.1l-.4.3v.5c-.2.5-.3.9-.4.9-.3.4-.4 1-.2 1.4.2.5.7.8 1.2.8h.1z" fill="#2b3647"/><path d="m209.3 177.3c-.8-.6-4.4-1.2-6.1 2.8-1.6 3.8-.3 7 1 7.2 2.1.3 2.8-.3 3-.8-1.2-.3-1.2-.7-1.4-1.3 1.2.9 2.2.4 2.2-.2s-.3-1.2-.4-1.5h-.2c-.6.8-.9.8-1 .9-.7-.6-3 0-2.4 1.7-1.1-3.1-.1-7.5 4.1-7.3v.1c-.8 1.2-.5 2.2-.1 2.8.2.4.2 1 0 1.3 0 0 0 .2.1.1.7-.2 1.1-1 1-1.3.5-.6 2.6-2.6.3-4.3" fill="#fff"/><path d="m210.5 177.7c.3.5 1.2 2.3-.6 4.2.1 1 0 1.9-.5 2.3 0 0 0 .1 0 0 1.2-.3 1.7-.9 1.7-1.6.6-.5 2.4-3.3-.6-5" fill="#fff"/><path d="m212.8 179.7c0 1.1.2 2-1.1 3.1-.1.8-.4 1.3-.6 1.6v.1c1.1-.2 1.4-.8 1.5-1 .4-.3 1.9-1.7.2-3.8z" fill="#fff"/><path d="m239.8 224.2-31.9 10.4-7.4 3.9-7.5-6.6-32.6-7.7-10.7-42.4 43 3.5 7.4 5 6.7-5 42.9-3.5z" fill="#fff"/></g><path d="m200.2 240.7-8-7.1-33.2-7.8-11.7-46 46.1 3.7 6.7 4.6 6.1-4.6 45.9-3.7-10.6 45.8-32.7 10.7-8.4 4.3zm-38.3-18 32 7.5 6.9 6.1 6.6-3.4 30.9-10.1 9-38.9-39.8 3.2-7.3 5.5-8.1-5.5-40-3.2 9.9 38.8z" fill="#979f82"/><path d="m241.8 242.6-33.4 8-7.9 3.6-7.8-3.6-34.2-8-11.7-51.8 44-3.2 9.4 5.6 8.6-5.6 43.8 3.2z" fill="#fff" fill-rule="evenodd"/><path d="m208.2 185.6-8.1 5.3-8.8-5.2-47 3.4 12.6 55.3 35.2 8.1 8.5 3.9 8.5-3.9 34.5-8.1 11.4-55.3-46.7-3.4zm31.9 55.4-32.2 7.6-7.4 3.4-7-3.2-33.4-7.8-11-48.4 41.2-3 9.9 5.9 9.1-5.9 40.9 3-10 48.4z" fill="#68813c"/><path d="m159.4 217.6c0-4.6 3.5-8 8.1-8s5.6 1.6 6.9 3.9l-4.2 2.4c-.6-1.1-1.4-1.8-2.7-1.8s-2.8 1.5-2.8 3.3c0 2 1.2 3.4 2.8 3.4s2.2-.8 2.9-1.9l4.2 2.4c-1.3 2.3-3.4 4.1-7.2 4.1s-7.9-3.2-7.9-7.9m15.2.1c0-4.6 3.5-8 8.1-8s5.6 1.6 6.9 3.9l-4.2 2.4c-.6-1.1-1.4-1.8-2.8-1.8s-2.8 1.5-2.8 3.3c0 2 1.2 3.4 2.8 3.4s2.2-.8 2.9-1.9l4.2 2.4c-1.3 2.3-3.4 4.1-7.2 4.1s-7.9-3.2-7.9-7.9m16-7.6h5.2l3.3 5.4 3.2-5.4h5.3v15.2h-5v-7.5l-3.5 5.4h-.1l-3.5-5.4v7.5h-4.9z" fill="#193657"/><path d="m209.5 209.9h6.8c4 0 6.8 1.8 6.8 5.4 0 3.7-2.8 5.7-6.9 5.7h-1.6v4.1h-5.1zm6.4 7.5c1.3 0 2.2-.6 2.2-1.7s-.8-1.7-2.1-1.7h-1.4v3.4h1.4zm8.2-7.5h7.4c2.7 0 4.4.7 5.5 1.7.9.9 1.4 2 1.4 3.6 0 2.3-1.1 3.8-3 4.7l3.5 5.2h-5.8l-2.9-4.3h-1.1v4.3h-5.1v-15.2zm7.3 7.3c1.2 0 2-.5 2-1.5s-.8-1.5-1.9-1.5h-2.2v3h2.2z" fill="#68813c"/><path d="m191.5 198.5-1.2 3.1 2.5 2.1-3.3-.2-1.2 3-.8-3.2-3.3-.2 2.8-1.7-.9-3.2 2.6 2.1zm30-1.6-1.3 3.1 2.6 2.1-3.3-.2-1.2 3.1-.9-3.2-3.3-.3 2.8-1.7-.8-3.2 2.6 2.1zm-.7 31.5-1 2.4 2 1.6-2.5-.2-1 2.4-.6-2.5-2.5-.1 2.1-1.4-.6-2.4 1.9 1.6zm-31.5 5.8-1.3 3 2.6 2.1-3.3-.2-1.3 3.1-.8-3.2-3.3-.2 2.8-1.8-.8-3.2 2.6 2.1zm13.5-6.6-.8 1.9 1.6 1.3-2.1-.1-.7 1.9-.5-2-2.1-.1 1.8-1.1-.5-2 1.5 1.3z" fill="#68813c" fill-rule="evenodd"/></svg>